<?xml version="1.0" encoding="utf-8"?>
<!-- Generator: Adobe Illustrator 27.1.1, SVG Export Plug-In . SVG Version: 6.00 Build 0)  -->
<svg version="1.0" id="Layer_1" xmlns="http://www.w3.org/2000/svg" xmlns:xlink="http://www.w3.org/1999/xlink" x="0px" y="0px"
	 viewBox="0 0 100 100" style="enable-background:new 0 0 100 100;" xml:space="preserve">
<style type="text/css">
	.st0{fill:#E28120;}
	.st1{fill:#B0B6BA;}
	.st2{fill:#F6C244;}
</style>
<g>
	<path d="M53.5,81.4c5.6,0,11,0,16.5,0c2.9,0,5.4,1.1,6.8,3.6c1.4,2.6,2.6,5.5,3.4,8.3c0.9,3-1.8,6.3-5,6.6c-0.4,0-0.7,0-1.1,0
		c-16.1,0-32.1,0-48.2,0c-3.3,0-5.7-1.8-6.1-4.9c-0.1-1,0.1-2.2,0.4-3.2c0.6-1.8,1.4-3.6,2.1-5.4c1.5-3.3,4-5.1,7.7-5.1
		c5.4-0.1,10.9,0,16.5,0c0-0.4,0-0.8,0-1.2c0-18,0-36,0-54c0-0.9-0.2-1.2-1.1-1.6c-4.1-1.6-6.7-4.6-7.9-8.8
		c-0.1-0.2-0.1-0.4-0.1-0.6c0-0.2-0.1-0.4-0.2-0.7c-3.2-0.5-6.4-0.9-9.7-1.4C19.7,12.1,11.7,11,3.8,9.8c-1.9-0.3-3.1-1.4-3.3-3
		C0.3,5.2,1.1,3.6,2.7,3.1C3.5,2.9,4.4,2.9,5.2,3c10.3,1.4,20.6,2.8,30.8,4.3c1.5,0.2,2.3,0,3.2-1.4c2.9-4.5,7.2-6.5,12.5-5.7
		c5.5,0.8,9,4.1,10.5,9.4c0.1,0.4,0.2,0.9,0.3,1.4c2.9,0.4,5.8,0.8,8.7,1.2c8.3,1.2,16.7,2.3,25,3.5c2,0.3,3.3,2,3,4
		c-0.2,1.9-2,3.2-4,2.9c-4.2-0.6-8.5-1.2-12.7-1.8c-6.8-1-13.6-1.9-20.4-2.9c-0.3,0-0.8,0.2-0.9,0.5c-1.6,3.1-4,5.2-7.3,6.3
		c-0.6,0.2-0.7,0.5-0.7,1c0,1.8,0,3.6,0,5.5c0,16.2,0,32.4,0,48.6C53.5,80.4,53.5,80.8,53.5,81.4z M72.7,93
		c-0.4-1.1-0.9-2.1-1.2-3.1c-0.4-1.1-1-1.6-2.2-1.5c-6.7,0.1-13.4,0-20,0c-6.2,0-12.5,0-18.7,0c-0.5,0-1.3,0.2-1.5,0.5
		c-0.7,1.2-1.1,2.6-1.7,4C42.5,93,57.5,93,72.7,93z M50,7c-3.3,0-5.8,2.6-5.8,5.9c0,3.1,2.7,5.7,5.8,5.7c3.2,0,5.8-2.6,5.8-5.9
		C55.8,9.6,53.2,7,50,7z"/>
	<path d="M80.2,72.1c-10.9,0-19.8-8.9-19.7-19.7c0-0.7,0.2-1.4,0.5-2c4.7-7.9,9.4-15.8,14.1-23.6c2-3.2,5.9-4.1,8.7-1.8
		c0.6,0.5,1.1,1.1,1.5,1.8c4.7,7.9,9.4,15.8,14.1,23.6c0.8,1.3,0.5,2.7,0.4,4C98.8,64.5,90.3,72.1,80.2,72.1z M70.1,48.8
		c6.8,0,13.4,0,20.2,0c-3.4-5.7-6.7-11.3-10.1-17C76.8,37.5,73.5,43.1,70.1,48.8z M92.4,55.9c-8.2,0-16.2,0-24.3,0
		c0.4,4.1,5.7,8.7,10.7,9.2C85.1,65.6,90.9,61.7,92.4,55.9z"/>
	<path d="M19.7,62.8C9.3,62.8,0.6,54.6,0,44.1c-0.1-1.5,0.3-2.7,1.1-4c4.5-7.5,9-15.1,13.5-22.6c1.9-3.2,5.8-4.1,8.6-1.9
		c0.7,0.5,1.3,1.2,1.7,2c4.7,7.8,9.4,15.7,14.1,23.5c0.3,0.6,0.5,1.3,0.5,1.9C39.6,53.8,30.6,62.8,19.7,62.8z M19.8,22.5
		c-3.4,5.7-6.7,11.3-10.1,17c6.8,0,13.4,0,20.2,0C26.5,33.8,23.2,28.3,19.8,22.5z M31.9,46.6c-8.2,0-16.3,0-24.4,0
		c1.4,5.4,6.8,9.4,12.4,9.2C25.6,55.7,30.9,51.6,31.9,46.6z"/>
	<path class="st0" d="M72.7,93c-15.2,0-30.2,0-45.4,0c0.6-1.4,1-2.8,1.7-4c0.2-0.4,1-0.5,1.5-0.5c6.2,0,12.5,0,18.7,0
		c6.7,0,13.4,0,20,0c1.2,0,1.9,0.4,2.2,1.5C71.8,90.9,72.3,91.8,72.7,93z"/>
	<path class="st1" d="M50,7c3.2,0,5.8,2.6,5.8,5.7c0,3.3-2.6,5.9-5.8,5.9c-3.1,0-5.8-2.6-5.8-5.7C44.2,9.6,46.7,7,50,7z"/>
	<path class="st2" d="M92.4,55.9c-1.5,5.9-7.3,9.7-13.6,9.2c-5-0.4-10.4-5-10.7-9.2C76.2,55.9,84.3,55.9,92.4,55.9z"/>
	<path class="st2" d="M31.9,46.6c-1,5-6.3,9.1-12,9.2C14.3,56,8.9,52,7.5,46.6C15.7,46.6,23.8,46.6,31.9,46.6z"/>
</g>
</svg>
