<?xml version="1.0" encoding="utf-8"?>
<!-- Generator: Adobe Illustrator 26.0.1, SVG Export Plug-In . SVG Version: 6.00 Build 0)  -->
<svg version="1.1" id="Layer_1" xmlns="http://www.w3.org/2000/svg" xmlns:xlink="http://www.w3.org/1999/xlink" x="0px" y="0px"
	 viewBox="0 0 420 420" style="enable-background:new 0 0 420 420;" xml:space="preserve">
<style type="text/css">
	.st0{fill:#ED786F;}
</style>
<g>
	<path d="M0,209.7C0.4,93.6,94.8-0.5,210.7,0C326.1,0.5,420.6,95.4,420,210.3c-0.6,117.1-95.2,210.4-212.6,209.7
		C93.3,419.2-0.4,324.3,0,209.7z M38.2,209.7c0,94.8,76.6,171.9,171.1,172c95.2,0.2,172.6-76.9,172.5-172.1
		c0-94.3-77.1-171.3-171.4-171.3C115.3,38.3,38.2,115,38.2,209.7z"/>
	<path class="st0" d="M38.2,209.7c0-94.7,77.2-171.4,172.2-171.4c94.2,0,171.3,77.1,171.4,171.3c0,95.1-77.3,172.3-172.5,172.1
		C114.9,381.5,38.2,304.5,38.2,209.7z M191.1,152.8C191,152.8,191,152.8,191.1,152.8c0,18.1,0.1,36.4-0.1,54.5
		c-0.1,7.4,2.4,13.1,7.6,18.2c15.4,15.1,30.7,30.5,45.9,45.8c3.2,3.2,6.4,6.7,9.9,9.8c11.1,9.8,28,4.3,31.3-10
		c1.7-7.3-0.8-13.5-6.1-18.6c-15.7-15.6-31.4-31.5-47.1-47.1c-2.4-2.4-3.5-4.8-3.5-8.1c0.1-32.9,0.1-65.8,0-98.8
		c0-2.9,0-5.7-0.8-8.3c-2.6-9.2-11.2-14.7-21-13.5c-8.8,1.1-16,8.7-16.1,18C190.9,114.1,191.1,133.5,191.1,152.8z"/>
	<path d="M191.1,152.8c0-19.3-0.1-38.7,0-58.1c0.1-9.3,7.3-16.9,16.1-18c9.8-1.2,18.4,4.2,21,13.5c0.7,2.6,0.8,5.6,0.8,8.3
		c0,32.9,0.1,65.8,0,98.8c0,3.5,1.1,5.8,3.5,8.1c15.7,15.6,31.4,31.4,47.1,47.1c5.2,5.2,7.8,11.3,6.1,18.6
		c-3.3,14.3-20.2,19.8-31.3,10c-3.5-3.1-6.6-6.4-9.9-9.8c-15.3-15.3-30.4-30.6-45.9-45.8c-5.2-5.1-7.8-10.8-7.6-18.2
		C191.2,189.2,191,171.1,191.1,152.8C191,152.8,191,152.8,191.1,152.8z"/>
</g>
</svg>
