<?xml version="1.0" encoding="utf-8"?>
<!-- Generator: Adobe Illustrator 28.1.0, SVG Export Plug-In . SVG Version: 6.00 Build 0)  -->
<svg version="1.1" id="Layer_1" xmlns="http://www.w3.org/2000/svg" xmlns:xlink="http://www.w3.org/1999/xlink" x="0px" y="0px"
	 viewBox="0 0 500 500" style="enable-background:new 0 0 500 500;" xml:space="preserve">
<style type="text/css">
	.st0{fill:#FFDA2C;}
	.st1{fill:#FFAE47;}
	.st2{fill:#FCAF19;}
</style>
<g>
	<ellipse class="st0" cx="249.5" cy="259.8" rx="192" ry="163.4"/>
	<g>
		<g>
			<path d="M183,73.5c-2.5-2.2-5.9-3.3-9.6-2.9c-4.3,0.4-8.8,0.9-13.1,1.9c-17.6,4.1-29.9,12.5-37.5,25.9c-5.5,9.8-8.3,20.6-8.4,33
				c0,1.9-0.4,2.8-1.8,3.9c-5.5,4.2-10.9,8.9-16,13.3c-0.4,0.3-0.7,0.6-1,0.9c-0.3-4.1-0.7-8.3-1.8-12.3
				c-3.8-15.1-13.3-27.3-29.9-38.6c-2.8-1.9-6.1-2.6-9.2-1.8c-3.3,0.8-6.2,3.1-8.1,6.4c-3.4,6.1-6.1,11.3-8.1,16.9
				c-8.2,21.8-4.8,41.3,9.9,58.1c3.6,4.2,7.7,7.9,11.7,11.5c1.2,1.1,2.5,2.3,3.7,3.4l-2.8,7.6c-2.1,5.8-4.3,11.7-6.5,17.6
				c-8.5-9.6-19.5-16.1-34.3-20.5c-4.6-1.4-11.4-2.6-16.9,4.1c-0.3,0.3-0.5,0.7-0.6,1.1c-0.3,1.1-0.6,2.1-0.9,3.1s-0.5,2-0.8,3
				c-0.1,0.2-0.1,0.4-0.1,0.6c-0.1,1.7-0.2,3.4-0.4,5.1c-0.3,3.6-0.5,7.3-0.5,11c0.2,19.5,6.9,34.2,20.4,45.1
				c8,6.4,17.4,11,28.8,14.2c0.6,0.2,1.1,0.4,1.4,0.6c1.3,5.5,2.5,11.1,3.6,16.9c-12.9-4.2-26.6-3.9-42.8,1.1
				c-4.2,1.3-7.1,3.7-8.6,7c-1.4,3.1-1.3,6.7,0.4,10.4c2.2,5.2,4.9,11.3,8.4,16.8c8.1,12.8,18,20.9,30.4,24.8
				c13.4,4.1,27.1,3.9,41.8-0.7c1.5-0.5,1.9-0.3,2.9,0.8c10.8,12.6,23.9,23.3,38.9,32c3.5,2,6.3,2.8,8.6,2.8c3.8,0,6-2.1,7.4-4.5
				c1.3-2.2,1.7-4.6,1.1-6.8c-0.8-3-3.3-5.6-7.5-8c-25.6-14.5-45.3-36.5-56.8-63.8c-11.2-26.5-13.7-56.5-7-84.7
				c6.9-29.3,22.2-54.2,45.3-73.8c5.5-4.7,10.6-8.7,18.3-9.5c16.7-1.7,29.8-8.6,39.1-20.7c8.9-11.6,12.9-25.6,12.6-44
				C186.6,78.6,185.3,75.6,183,73.5z M166.7,91.1c-0.8,14.9-7.5,31.8-32.1,35.9C135.2,107.3,146.9,94.1,166.7,91.1z M72.2,344.6
				c-21,5.6-37.7-2.7-47.8-23.6C46.3,315.8,61.9,323.6,72.2,344.6z M70,172.6c-8.1-5.9-13.8-15.5-15.6-26.2
				c-1.7-9.8,0.2-19.3,5-26.4C77,134.2,80.5,151.5,70,172.6z M47.8,264.2c-10.1-3.2-18.6-10.1-23.9-19.3c-4.8-8.4-6.2-17.6-4.2-26.4
				C40.8,225.3,50.9,241.7,47.8,264.2z"/>
			<path d="M489.3,304c-8.2-1.9-16.7-3.8-25.5-4c-5.4-0.1-10.7,0.9-15.9,1.9c-0.7,0.1-1.4,0.3-2,0.4c1.2-5.9,2.4-11.5,3.6-16.7
				c0.2-0.1,0.5-0.3,0.9-0.4c1.4-0.5,2.8-0.9,4.1-1.3c2.6-0.8,5.2-1.6,7.8-2.8c18.2-7.7,29.5-19.3,34.6-35.2
				c3.5-10.9,4.1-22.7,1.7-37.4c-0.8-4.7-2.7-8.1-5.7-10c-3.1-2-7-2.3-11.7-1c-15.1,4.1-26.9,11-35.6,20.8c-0.5-1.3-1-2.6-1.5-3.9
				c-2.4-6.3-4.7-12.3-7.2-18.3l-0.1-0.4c-0.5-1.2-0.9-2.3-1.1-2.9c0.4-0.4,1.5-1.2,2.6-2.1c12.4-9.3,20.4-19.6,24.5-31.6
				c6.1-18.4,2.9-36.6-10.3-57.5c-1.7-2.6-4.2-4.4-7.2-5.1c-3-0.6-6.1,0-8.7,1.7c-15.7,10.3-25.4,22.3-29.6,36.4
				c-1.4,4.8-1.9,9.8-2.5,14.6v0.1c-0.6-0.5-1.1-1-1.7-1.5c-4.3-3.8-8.7-7.7-13.5-11.3c-2.8-2.2-3.7-3.9-3.9-7.4
				c-0.8-19-6.8-33.2-18.4-43.5c-10.5-9.4-23.7-14.3-41.4-15.4c-3.4-0.2-6.6,0.9-8.8,3.2c-2.4,2.4-3.7,5.8-3.6,9.7
				c0.2,5.2,0.5,11.3,1.5,17.1c3.1,17,11.4,29.6,24.6,37.6c8.5,5.1,17.9,8.2,28.9,9.4c1.3,0.1,3.7,0.4,4.9,1.1c4,2.6,7.7,5.7,10.5,8
				c27.3,23.8,43.2,53.5,47.3,88.4c4.3,36.4-4.7,69.7-26.8,99c-10.8,14.3-24.4,25.9-40.3,34.7c-3.7,2-5.9,4.5-6.7,7.4
				c-0.6,2.3-0.3,4.7,1.1,7c1.1,1.9,3.4,4.4,7.4,4.4c2.1,0,4.7-0.7,7.8-2.4c15.2-8.6,27.3-18.1,36.8-29.2c3.5-4.1,5.5-4.8,9.1-2.9
				c0,0,0.1,0,0.1,0.1c1.5,0.7,3.1,0.9,4.5,1.1c0.4,0.1,0.8,0.1,1.2,0.2c16.8,2.8,30.1,1,41.9-5.7c13.6-7.7,23.2-20.1,30.2-38.8
				c1.3-3.4,1.1-7.1-0.5-10.1C495.2,306.8,492.6,304.8,489.3,304z M475.5,320.9c-9.3,20.6-26.1,29-47.6,23.8
				C437.4,324.1,454.1,315.7,475.5,320.9z M440.5,119.8c4.9,6.4,6.7,15.9,5.1,26.2c-1.9,11.4-7.7,21.3-15.6,26.6
				C419.1,151.8,422.6,134.5,440.5,119.8z M480.2,218.5c2,8.6,0.6,17.8-4,26.1c-5.2,9.3-13.9,16.3-24.1,19.6
				C449,241.4,458.9,225.3,480.2,218.5z M365.5,126.9c-19.7-2.8-31.3-15.6-32.3-35.8C353.2,94.2,364.1,106.2,365.5,126.9z"/>
		</g>
		<path class="st1" d="M71.1,176.9c-20.8-12.4-27-43.6-12.3-61.2C80.3,131.7,84.9,151.8,71.1,176.9z"/>
		<path class="st1" d="M17.7,214.8c26.2,7,37.4,26.7,32.5,53.1C25.9,262.3,10.5,237.3,17.7,214.8z"/>
		<path class="st1" d="M20.3,319c25.7-7.3,44.7,1.5,56,27.5C52.6,354.2,31.7,346,20.3,319z"/>
		<path class="st1" d="M169.8,87.8c0,23-11.9,39.7-38.1,42.7C130.8,107.9,143.6,90.1,169.8,87.8z"/>
		<path class="st1" d="M428.8,176.7c-13-23-10.5-43.9,12.1-61C456.1,131.2,449.1,166.2,428.8,176.7z"/>
		<path class="st1" d="M482.3,214.8c7.3,22.3-8,47.2-32.5,53.1C444.8,241.5,456.1,221.8,482.3,214.8z"/>
		<path class="st1" d="M423.8,346.7c10.4-25.7,30.4-35.4,55.7-27.8C469.3,344.7,449.1,354.2,423.8,346.7z"/>
		<path class="st1" d="M330.2,87.8c25.5,2.6,37.9,18.3,38.4,42.5C343,128.2,330,111.1,330.2,87.8z"/>
	</g>
	<path class="st0" d="M309.1,103.8c-1.6,0-3,0-4.3,0c-9.7,0-19.5,0-29.1,0c-4,0-6.3,2.1-6.3,5.4s2.4,5.3,6.4,5.3
		c10.7,0,21.3,0,32.2,0c0,3.4,0,6.6,0,10.1c-38.2,0-76.5,0-115,0c0-3.2,0-6.5,0-10.1c0.9,0,1.9,0,2.8,0c10.5,0,20.8,0,31.3,0
		c3.1,0,5.2-1.9,5.6-4.4c0.4-2.6-1-5-3.4-5.8c-1.1-0.4-2.3-0.4-3.4-0.4c-10.4,0-20.7,0-31,0c-1,0-1.9,0-3.1,0
		c-4.1-21.5-8.1-42.9-12.3-64.8c1.1,0.7,1.9,1.2,2.7,1.7c10.8,7.2,21.5,14.4,32.3,21.5c4.6,3.2,7,2.7,10.2-2.1
		c8.1-12.1,16.1-24.2,24.2-36.3c0.5-0.8,1.1-1.5,1.8-2.5c1.8,2.7,3.4,5,5,7.4c6.8,10.3,13.7,20.6,20.6,30.8
		c3.7,5.5,5.6,5.9,11.4,2.2c10.4-6.9,20.7-13.8,31-20.7c0.8-0.5,1.6-1,3.1-1.9C317.4,61,313.2,82.3,309.1,103.8z M245.6,109
		c-0.1,3,2.2,5.4,5.1,5.5c3.1,0.1,5.5-2.3,5.5-5.3s-2.3-5.3-5.3-5.3C248,103.8,245.7,106,245.6,109z"/>
	<g>
		<path d="M334.5,19.5L334.5,19.5c-5.2-3.4-9.7-0.3-11.5,1c-1.5,1.1-3.2,2.2-4.8,3.2c-0.9,0.6-1.9,1.2-2.8,1.8L284.8,46l-5.9-8.8
			c-4.3-6.4-8.7-13-13.1-19.6l-6.5-9.8c-1.1-1.7-4-6.1-8.4-6.1c-4.9,0-8.3,5.3-9.4,7.2c-3.4,5-6.8,10.2-10.2,15.2
			c-2.8,4.2-5.6,8.4-8.4,12.5l-6.4,9.4l-8.3-5.5c-2.9-1.9-5.7-3.8-8.6-5.7c-7.1-4.7-14.5-9.6-21.8-14.5c-1.4-0.9-5.8-3.8-10.8-0.8
			c-5.5,3.4-4.4,9.2-4,11.1c0.6,3.1,1.2,6.1,1.7,9.2c0.6,3.1,1.1,6.1,1.7,9.2c2.3,12.6,5,26.8,7.8,40.7c2.4,12,4.6,25,3.9,38.3
			c-0.2,2.7,0,6.2,2.4,8.8c2.3,2.5,5.8,2.8,9,2.8h119.9c10.7,0,13.3-2.6,13.3-13.4c0-1.7,0-3.5-0.1-5.3c-0.1-3.8-0.2-7.8,0.4-11.5
			c1.2-7.7,2.8-15.5,4.3-22.9c0.7-3.2,1.4-6.6,2-10l6-30.5l3.1-15.7c0-0.1,0-0.1,0-0.2C338.8,27.8,339.4,22.7,334.5,19.5z M277.5,88
			c-3.1,0-5.9,1-7.7,2.8c-1.6,1.6-2.5,4-2.5,6.5c0,5.6,4.2,9.3,10.4,9.3h28l-1.4,14H196.5l-1.4-14H225c4.9,0,8.8-3.2,9.5-7.8
			c0.7-4.6-1.8-8.9-6-10.2c-1.6-0.5-3.1-0.5-4.6-0.5h-30.8l-7.9-40.6l27.1,18c2.1,1.4,5.3,3.2,8.6,2.5c3.4-0.7,5.5-3.4,7.1-5.7
			l22.7-33.9c0.6,0.8,1.1,1.6,1.7,2.5L273,61.7c1.8,2.7,4,5.5,7.3,6.3h0.1c3.4,0.6,6.5-1.1,9.3-3l11.8-7.8c3.2-2.1,6.4-4.3,9.7-6.4
			c1.6-1.1,3.2-2.1,4.8-3.2L308,88C308,88,277.5,88,277.5,88z"/>
		<path d="M251,88.1c-5.1,0-9.2,4-9.4,9c-0.1,2.5,0.8,4.9,2.5,6.7c1.7,1.8,4,2.8,6.6,2.9h0.2c2.5,0,4.7-0.9,6.4-2.6
			c1.8-1.7,2.9-4.1,2.9-6.6c0.1-2.5-0.8-4.9-2.5-6.6C255.9,89,253.5,88.1,251,88.1z"/>
	</g>
	<g>
		<path class="st2" d="M178.7,415.8c-11.7-4.7-22.8-9.2-34-13.8c-5-2.1-6.6-1.5-8.9,3.5c-3.8,8.4-7.4,16.8-11.2,25.1
			c-0.5,1.1-1.1,2.2-1.7,3.4c-13.7-5.7-27.3-11.3-40.7-17.1c-1.4-0.6-2.9-2.7-2.9-4.1s1.5-3.4,2.9-4.1c8.7-4.9,17.5-9.8,26.4-14.4
			c2.2-1.2,2.6-2.3,2-4.5c-2.8-9.3-5.5-18.5-7.9-27.9c-0.5-2-0.3-4.9,1-6.2c1-1.1,4.1-0.9,5.9-0.2c24.9,10.2,49.6,20.6,74.4,30.9
			c4.9,2.1,5.6,3.6,3.6,8.4C184.8,401.5,182,408.2,178.7,415.8z"/>
		<path class="st2" d="M321.3,415.2c-3.2-7.6-6.2-14.9-9.2-22.3c-1.4-3.5,0.8-5.2,3.7-6.4c11.2-4.6,22.3-9.3,33.5-13.9
			c13.7-5.7,27.5-11.5,41.2-17.2c2.2-0.9,4.7-2.2,6.3,0.1c1.1,1.6,1.3,4.3,0.8,6.3c-2.4,9.1-5,18.1-7.6,27.2
			c-0.3,1.2-0.6,2.3-0.9,3.7c9.4,5.1,18.7,10.1,27.8,15.3c1.8,1,3.7,3.1,4.1,4.9c0.6,2.9-2.3,4-4.5,4.8c-12.2,5-24.3,10.2-36.6,15.2
			c-0.8,0.3-1.6,0.6-2.7,0.9c-3.9-8.6-7.6-17-11.4-25.5c-0.6-1.2-1.1-2.5-1.7-3.7c-1.9-4.1-3.7-4.6-7.9-3
			c-10.9,4.3-21.8,8.5-32.7,12.7C322.9,414.8,322.3,414.9,321.3,415.2z"/>
		<g>
			<path d="M187.2,378.6l-7.8-3.3c-5.6-2.3-11.2-4.7-16.9-7.1c-16.3-6.8-33.2-13.9-49.8-20.6c-3.3-1.3-10.7-2.6-15.2,2.2
				c-3.5,3.8-4,9.8-2.9,14c2,7.8,4.2,15.4,6.6,23.5l0.3,1.2c-9.2,4.9-16.7,9-23.4,12.8c-3.4,1.9-7,6.3-7,11.4
				c0,4.7,3.5,9.8,7.9,11.8c9.5,4.1,19.2,8.1,28.6,12.1l3.1,1.3c1.8,0.8,3.6,1.5,5.3,2.2c1.3,0.5,2.5,1,3.8,1.5
				c1,0.4,2.1,0.6,3.2,0.6c3.2,0,6.2-1.8,7.5-4.6c0.1-0.3,0.3-0.6,0.4-0.7c0.1-0.1,0.1-0.2,0.2-0.3c0.4-0.8,0.8-1.7,1.3-2.6
				c1-2.3,2-4.5,3-6.7c1-2.3,2-4.5,3-6.8c0.8-1.9,1.7-3.8,2.6-5.7c0.6-1.4,1.3-2.8,1.9-4.3c3.2,1.3,6.4,2.6,9.5,3.9
				c4.2,1.7,8.4,3.4,12.8,5.2c3.3,1.4,6.7,2.7,10.1,4.1l0.3,0.1c4.3,1.7,9-0.3,10.8-4.6l2.9-6.9c0.9-2.1,1.8-4.2,2.6-6.3
				c1.1-2.7,2.2-5.3,3.3-7.9c2-4.6,2.4-8.5,1-11.7C194.8,383,191.9,380.5,187.2,378.6z M112.6,401.4c5.7-3,7.9-8.3,6-14.3l-0.9-2.9
				c-1.9-6.4-3.7-12.6-5.4-18.7c13,5.3,26,10.8,38.7,16.1c7.3,3.1,14.6,6.1,21.9,9.1l6.3,2.6c-1.6,4-3.3,7.9-4.9,11.6
				c-0.9-0.4-1.8-0.8-2.7-1.1c-5.9-2.3-11.6-4.7-17.1-6.9l-6.5-2.7c-9.2-3.8-15.6-1.2-19.7,7.8c-0.8,1.9-1.7,3.8-2.6,5.8
				c-0.9,1.9-1.7,3.9-2.6,5.9c-1.4,3.1-2.8,6.3-4.2,9.5c-0.6-0.2-1.1-0.5-1.7-0.7c-7.2-2.9-15-6.2-24.4-10.2
				C98.9,408.7,105.5,405.2,112.6,401.4z"/>
			<path d="M429.1,411.2L429.1,411.2c-1-5-5-8.8-8-10.6c-5.7-3.3-11.5-6.5-17.2-9.5l-3.5-1.9h-0.1c-0.5-0.2-0.9-0.5-1.4-0.7
				c0.5-1.6,0.9-3.2,1.3-4.7l0.3-0.9c1.8-6.2,3.7-12.6,5.3-19c0.9-3.4,0.9-8.9-2-13.1c-2.4-3.6-7.2-7-16.1-3.3l-0.2,0.1
				c-0.1,0-0.1,0.1-0.2,0.1c-10.3,4.4-20.7,8.7-30.8,12.8l-18.9,7.8c-4.1,1.7-8.3,3.5-12.5,5.2s-8.4,3.5-12.5,5.2
				c-9.6,4-10.4,11.8-8.1,17.3c1.8,4.4,3.6,8.8,5.5,13.3l1,2.5c0.9,2.2,1.8,4.4,2.8,6.6c1.7,3.9,6,6,10.1,4.7h0.1
				c0.1,0,0.1,0,0.2-0.1c0.2,0,0.4-0.1,0.6-0.1c0.2-0.1,0.3-0.1,0.5-0.1c0.4-0.1,0.9-0.3,1.5-0.5l7.5-2.9c3.3-1.3,6.6-2.6,9.9-3.9
				c4.4-1.7,9-3.5,13.5-5.3c0.2,0.5,0.4,1,0.6,1.5l11.4,25.5c1.3,3,4.3,4.9,7.6,4.9c0.9,0,1.8-0.2,2.7-0.4c0.1,0,0.2-0.1,0.4-0.1
				c0.2-0.1,0.4-0.1,0.6-0.2c0.9-0.2,1.5-0.5,2.2-0.8c4.8-2,9.6-4,14.4-6s9.6-4,14.4-6l8.1-3.4c0,0,0.1,0,0.1-0.1l0.3-0.1
				C427.3,421.9,430.2,417.2,429.1,411.2z M384.2,379.1c-0.3,1.2-0.7,2.5-1.1,3.7c-0.4,1.3-0.7,2.5-1.1,3.8c0,0.1,0,0.1,0,0.2
				c-0.1,0.4-0.2,0.7-0.3,1.1c-0.1,0.5-0.3,1-0.4,1.4l-0.3,1.2c-0.9,3.7,0.8,7.5,4.2,9.4c1.2,0.6,2.4,1.3,3.6,1.9
				c1.2,0.7,2.5,1.4,3.7,2c1.8,1,3.5,1.9,5.2,2.8c3.5,1.9,6.8,3.7,10.2,5.6l-2.4,1.1l-6,2.5c-5.9,2.4-11.9,4.9-17.8,7.4l-8.1-18.2
				c-0.3-0.6-0.6-1.2-0.8-1.8c-0.3-0.6-0.6-1.3-0.9-1.9c-2.7-5.7-6.6-8.6-11.8-8.6c-2.1,0-4.4,0.5-6.8,1.5
				c-4.5,1.8-9.1,3.6-13.5,5.3c-3.9,1.5-7.9,3.1-11.6,4.6l-2,0.8c-1.5-3.6-3.1-7.3-4.7-11.4c3.4-1.4,6.8-2.8,10.3-4.3
				c4.2-1.7,8.3-3.4,12.4-5.2l18.9-7.8c8.9-3.7,17.1-7.1,25.2-10.5C386.8,370.3,385.4,375,384.2,379.1z"/>
		</g>
		<path class="st2" d="M250.2,489.8c-47,0.7-92-8.8-135.1-27.5c-4.6-2-5.3-3.7-3.4-8.2c8.3-18.7,16.6-37.3,24.8-55.9
			c2.1-4.7,3.7-5.3,8.6-3.3c24.7,10.8,50.6,17.6,77.4,20.4c45,4.6,88.3-1.8,130-19.3c8.7-3.7,8.7-3.8,12.4,4.8
			c7.8,17.5,15.6,35.1,23.4,52.6c2.4,5.3,1.9,6.8-3.4,9.1c-36.2,15.7-73.8,25-113.1,27.3C264.6,490.2,257.4,489.8,250.2,489.8z"/>
		<path d="M396.2,450c-3.9-8.7-7.8-17.5-11.7-26.3c-3.9-8.8-7.8-17.5-11.7-26.3l-0.1-0.3c-2.4-5.4-4.2-9.3-8.8-11
			c-4.6-1.9-8.5-0.3-13.9,1.9l-0.4,0.2c-0.1,0-0.1,0.1-0.2,0.1l-0.1,0.1c-40.1,16.8-82.4,23.1-125.8,18.6
			c-25.6-2.6-50.8-9.3-74.9-19.7c-9.2-3.9-15.6-1.4-19.6,7.5c-8.2,18.4-16.4,36.9-24.7,55.4l-0.2,0.5c-1.4,3.1-2.7,7.2-1,11.5
			c1.7,4.5,5.5,6.6,8.6,7.9c44.7,19.3,91.3,28.8,138.5,28.1c1.1,0,2.2,0,3.3,0s2.2,0,3.4,0.1c2.3,0.1,4.6,0.1,7,0.1
			c2.8,0,5.6,0,8.7-0.3c39.5-2.3,78.5-11.7,116-27.9c2.6-1.2,7-3.2,9-8C399.3,457.2,397.3,452.5,396.2,450z M380.2,455.6
			c-35.1,15-71.7,23.7-108.8,25.9c-4.6,0.3-9.2,0.2-14,0.1h-0.1c-2.3-0.1-4.7-0.1-7-0.1l0,0h-0.1c-44.1,0.5-87.7-8.1-129.7-25.8
			c7.7-17.4,15.5-35,23.1-52.1c25.3,10.7,51.6,17.5,78.2,20.3c46.3,4.7,91.4-2,134-19.9c0.1,0,0.1-0.1,0.2-0.1l0.1-0.1
			c0.3-0.1,0.6-0.3,0.9-0.4c0.1,0.3,0.3,0.6,0.4,0.9v0.1c3.9,8.7,7.8,17.5,11.7,26.3C372.8,439,376.5,447.4,380.2,455.6z"/>
	</g>
	<g>
		<path d="M147.3,440.7c-0.3,1-0.4,1.9-0.4,2.6c0.1,0.8,0.2,1.4,0.5,2s0.7,1.1,1.2,1.4c0.5,0.4,1.1,0.7,1.7,0.9
			c0.7,0.2,1.3,0.3,2,0.3s1.3-0.2,1.9-0.5c0.6-0.3,1.1-0.8,1.6-1.4s0.9-1.3,1.1-2.2l5.3-16.6c0.1-0.2,0.2-0.4,0.4-0.5s0.5-0.1,0.7,0
			l5.7,1.9c0.3,0.1,0.5,0.3,0.6,0.5s0.1,0.5,0.1,0.7l-5.3,16.5c-0.7,2.3-1.7,4.1-2.9,5.4c-1.2,1.4-2.5,2.3-4,2.9s-3,0.8-4.6,0.8
			c-1.6-0.1-3.3-0.4-4.9-0.9s-3.2-1.3-4.5-2.2c-1.4-0.9-2.5-2.1-3.3-3.4s-1.3-2.9-1.5-4.6s0.1-3.8,0.8-6l5.3-16.5
			c0.1-0.2,0.2-0.4,0.4-0.5s0.4-0.2,0.7-0.1l5.8,1.9c0.2,0.1,0.4,0.2,0.5,0.4c0.2,0.2,0.2,0.5,0.1,0.7L147.3,440.7z"/>
		<path d="M170.8,436c-0.2-0.6-0.1-1.1,0.1-1.5c0.3-0.4,0.7-0.5,1.3-0.3l5.1,1.1c0.4,0.1,0.6,0.2,0.9,0.5s0.4,0.6,0.4,0.9
			c0.1,0.8,0.2,1.6,0.3,2.6c0.1,0.9,0.2,1.9,0.3,2.9s0.2,2,0.3,2.9c0.1,1,0.2,1.9,0.3,2.7s0.2,1.5,0.3,2.2c0.1,0.6,0.1,1.1,0.2,1.3
			l7.1-12.6c0.3-0.4,0.5-0.6,0.8-0.8c0.3-0.1,0.6-0.1,1,0l4.7,1c0.4,0.1,0.7,0.2,0.9,0.3c0.2,0.1,0.3,0.3,0.3,0.5s0,0.4-0.1,0.6
			s-0.2,0.4-0.3,0.6l-3.4,4.9c0,0.3,0.1,0.7,0.3,1.3c0.2,0.6,0.3,1.3,0.5,2.1c0.2,0.8,0.4,1.6,0.6,2.4c0.2,0.8,0.4,1.6,0.5,2.3
			l7.7-12.4c0.3-0.4,0.5-0.7,0.7-0.8c0.2-0.1,0.5-0.1,0.9-0.1l4.4,0.9c0.7,0.1,1.1,0.4,1.3,0.6c0.2,0.3,0.1,0.8-0.2,1.4l-14.2,21.2
			c-0.2,0.2-0.4,0.4-0.7,0.5s-0.7,0.1-1.1,0l-2.1-0.4c-0.5-0.1-0.9-0.3-1.1-0.5c-0.2-0.2-0.4-0.5-0.5-0.8l-1.9-10l-5.6,8.4
			c-0.2,0.2-0.4,0.4-0.7,0.5c-0.2,0.1-0.6,0.1-1,0.1l-2.4-0.5c-0.5-0.1-0.9-0.3-1.1-0.5c-0.2-0.2-0.3-0.5-0.4-0.7L170.8,436z"/>
		<path d="M218.6,456.3c-0.1,1,0,1.9,0.2,2.6s0.6,1.3,1,1.8s1,0.9,1.6,1.1c0.6,0.3,1.2,0.4,1.9,0.4s1.4,0,2-0.2s1.2-0.5,1.7-1
			c0.5-0.4,0.9-1,1.2-1.7s0.5-1.5,0.6-2.4l1.2-17.5c0-0.2,0.1-0.5,0.3-0.6c0.2-0.2,0.4-0.2,0.7-0.2l6,0.4c0.3,0,0.6,0.1,0.7,0.3
			c0.2,0.2,0.2,0.4,0.2,0.7l-1.2,17.3c-0.2,2.4-0.7,4.3-1.5,5.9s-1.9,2.9-3.2,3.8s-2.7,1.5-4.2,1.9c-1.6,0.3-3.3,0.4-4.9,0.3
			s-3.4-0.5-4.9-1c-1.6-0.6-2.9-1.4-4-2.5s-2-2.5-2.6-4.1c-0.6-1.7-0.8-3.7-0.7-6l1.2-17.3c0-0.2,0.1-0.4,0.3-0.6s0.4-0.3,0.6-0.2
			l6.1,0.4c0.2,0,0.4,0.1,0.6,0.3c0.2,0.2,0.3,0.4,0.3,0.7L218.6,456.3z"/>
		<path d="M244.1,439.6c0-0.3,0.1-0.5,0.2-0.7c0.2-0.2,0.4-0.3,0.6-0.3l19.8,0.2c0.3,0,0.6,0.1,0.7,0.3c0.2,0.2,0.2,0.4,0.2,0.7v5.1
			c0,0.2-0.1,0.5-0.3,0.7c-0.2,0.2-0.4,0.3-0.7,0.3l-12.5-0.1l-0.1,6.4l9.3,0.1c0.3,0,0.5,0.1,0.7,0.2s0.3,0.4,0.3,0.7v4.9
			c0,0.2-0.1,0.5-0.2,0.7c-0.2,0.2-0.4,0.3-0.7,0.3l-9.3-0.1l-0.1,9.5c0,0.6-0.3,0.9-1,0.9l-6.3-0.1c-0.5-0.1-0.7-0.4-0.7-0.9
			L244.1,439.6z"/>
		<path d="M278.9,456.2c0.1,1,0.3,1.9,0.7,2.6c0.4,0.7,0.8,1.2,1.3,1.6s1.1,0.7,1.7,0.8c0.6,0.1,1.3,0.2,2,0.1s1.3-0.3,1.9-0.6
			c0.6-0.3,1.1-0.7,1.5-1.2s0.7-1.2,0.9-1.9c0.2-0.7,0.3-1.6,0.2-2.5l-1.7-17.4c0-0.2,0-0.5,0.2-0.7s0.4-0.3,0.7-0.3l6-0.6
			c0.3,0,0.6,0,0.8,0.2c0.2,0.2,0.3,0.4,0.3,0.6l1.7,17.3c0.2,2.4,0.1,4.4-0.5,6.1s-1.4,3.1-2.5,4.2s-2.4,2-4,2.6
			c-1.5,0.6-3.2,1-4.8,1.1c-1.7,0.2-3.4,0.1-5-0.2c-1.6-0.3-3.1-0.9-4.3-1.8c-1.3-0.9-2.4-2.1-3.3-3.7s-1.4-3.5-1.7-5.8l-1.7-17.3
			c0-0.2,0-0.5,0.2-0.7c0.1-0.2,0.3-0.3,0.6-0.3l6.1-0.6c0.2,0,0.4,0,0.7,0.2c0.2,0.2,0.4,0.4,0.4,0.6L278.9,456.2z"/>
		<path d="M300.3,436.2c-0.1-0.3,0-0.5,0.1-0.7s0.3-0.3,0.5-0.4l19.4-3.8c0.3-0.1,0.6,0,0.8,0.1c0.2,0.1,0.3,0.4,0.4,0.7l1,5
			c0,0.2,0,0.5-0.1,0.7s-0.3,0.4-0.7,0.5l-12.4,2.4l1.2,6.2l9.1-1.8c0.3,0,0.5,0,0.7,0.1s0.3,0.3,0.4,0.6l0.9,4.8
			c0,0.2,0,0.5-0.1,0.7s-0.3,0.4-0.6,0.4l-9.1,1.8l1.8,9.3c0.1,0.6-0.1,0.9-0.8,1.1l-6.1,1.2c-0.5,0-0.8-0.2-0.9-0.7L300.3,436.2z"
			/>
		<path d="M337.8,445.7c0.3,1,0.7,1.8,1.2,2.4s1,1.1,1.6,1.4s1.2,0.5,1.8,0.5s1.3-0.1,1.9-0.2c0.7-0.2,1.3-0.5,1.8-0.9
			s0.9-0.9,1.3-1.5c0.3-0.6,0.5-1.3,0.6-2c0.1-0.8,0-1.6-0.3-2.5l-4.9-16.8c-0.1-0.2,0-0.5,0.1-0.7s0.3-0.4,0.6-0.5l5.7-1.7
			c0.3-0.1,0.6-0.1,0.8,0.1c0.2,0.1,0.4,0.3,0.4,0.5l4.9,16.7c0.7,2.3,0.9,4.3,0.7,6.1c-0.2,1.8-0.8,3.3-1.6,4.5
			c-0.9,1.3-2,2.4-3.4,3.3s-2.9,1.6-4.5,2c-1.7,0.5-3.4,0.7-4.9,0.8c-1.7,0-3.2-0.3-4.6-0.9s-2.7-1.6-3.9-3
			c-1.2-1.4-2.1-3.2-2.7-5.4l-4.9-16.7c-0.1-0.2-0.1-0.5,0.1-0.7c0.1-0.2,0.3-0.4,0.5-0.4l5.9-1.8c0.2-0.1,0.4,0,0.7,0.1
			c0.3,0.1,0.4,0.3,0.5,0.5L337.8,445.7z"/>
	</g>
	<g>
		<path d="M190,225.5h-10.9v-69.3H190v29.7h12.4v-29.7h11.1v69.3h-11.1v-29.7H190V225.5z"/>
		<path d="M256.6,225.5h-11l-1.9-12.6h-13.4l-1.9,12.6h-10l11.1-69.3h15.9L256.6,225.5z M231.8,203.5h10.5l-5.2-35L231.8,203.5z"/>
		<path d="M261.7,156.2h10.9v59.4h17.9v9.9h-28.8V156.2z"/>
		<path d="M295.2,156.2h10.9v59.4h17.9v9.9h-28.8V156.2z"/>
		<path d="M228.3,249.4c0-7.2,3.8-11.3,10.7-11.3c6.9,0,10.7,4.1,10.7,11.3v23.3c0,7.2-3.8,11.3-10.7,11.3
			c-6.9,0-10.7-4.1-10.7-11.3V249.4z M235.3,273.1c0,3.2,1.4,4.4,3.6,4.4c2.2,0,3.6-1.2,3.6-4.4V249c0-3.2-1.4-4.4-3.6-4.4
			c-2.2,0-3.6,1.2-3.6,4.4V273.1z"/>
		<path d="M261.3,258.6h9.1v6.4h-9.1v18.5h-7v-44.8h18.6v6.4h-11.6V258.6z"/>
		<path d="M183.3,328.9h14.1v9.9h-14.1v28.6h-10.9v-69.3h28.8v9.9h-17.9V328.9z"/>
		<path d="M240.4,367.5h-11l-1.9-12.6h-13.4l-1.9,12.6h-10l11.1-69.3h15.9L240.4,367.5z M215.6,345.5h10.5l-5.2-35L215.6,345.5z"/>
		<path d="M268.6,347.4l7.4-49.2h15.1v69.3h-10.3v-49.7l-7.5,49.7H263l-8.1-49v49h-9.5v-69.3h15.1L268.6,347.4z"/>
		<path d="M309.9,327.4h14.9v9.9h-14.9v20.3h18.8v9.9h-29.7v-69.3h29.7v9.9h-18.8V327.4z"/>
	</g>
</g>
</svg>
