<?xml version="1.0" encoding="utf-8"?>
<!-- Generator: Adobe Illustrator 27.8.1, SVG Export Plug-In . SVG Version: 6.00 Build 0)  -->
<svg version="1.1" id="Layer_1" xmlns="http://www.w3.org/2000/svg" xmlns:xlink="http://www.w3.org/1999/xlink" x="0px" y="0px"
	 viewBox="0 0 420 420" style="enable-background:new 0 0 420 420;" xml:space="preserve">
<style type="text/css">
	.st0{fill:#E9DCC0;}
	.st1{fill:#F2D1A5;}
</style>
<path class="st0" d="M114.7,144c62.1,0,123.8,0,185.9,0c0,70,0,139.8,0,209.9c-8.1,0-176.5,0-185.9,0
	C114.7,284.1,114.7,214.2,114.7,144z"/>
<path class="st1" d="M321.7,400.8c-76.2,0-151.7,0-227.4,0c0-8.9-0.5-17.8,0.2-26.5c0.4-5.6,4.2-8.3,8.2-9c1.4-0.2,2.9-0.1,4.3-0.1
	c67.1,0,134.3,0,201.4,0c10.4,0,13.3,4.1,13.3,18.5C321.7,389.2,321.7,394.8,321.7,400.8z"/>
<path class="st0" d="M86.2,135.7C58,129.5,39,98.7,41.9,69.9C44.7,41.8,69.2,9.6,97.8,9.6c73.3-0.1,146.6-0.1,219.9,0
	c29,0.1,53.9,33,55.9,61.3c2.1,29.9-18.3,61-46.6,65.2C315.6,137.7,105.8,140.1,86.2,135.7z"/>
<path d="M327.2,420c-82.1,0-157.6,0-239.7,0c-5.7,0-12.3-5.8-12.3-12.1c-0.1-10.4-0.4-20.8,0.3-31.1c0.7-12.1,7-21.1,17.8-26.6
	c2.9-1.5,3.7-3.1,3.7-6.2c-0.1-62.8-0.1-125.7-0.1-188.5c0-1.5,0-2.9,0-4.3c-1.5-0.4-2.6-0.7-3.6-0.9c-32.7-6.9-57.3-34.3-60.3-67.2
	c-3-33.6,16.2-65.1,47.6-77.4c6.5-2.6,15.1-5.6,27-5.6c71.1,0,116.3,0,187.4,0c0,0,11.3-0.1,12.3,0c37.7,2,73.1,35.3,75.2,70
	c2.2,37.2-21,70-56.1,79.3c-2.6,0.7-5.2,1.3-7.8,1.9c0,66,0,131.6,0,197.1c16.5,9,21.7,17.6,21.7,36.2c0,6.6-0.3,13.1,0.1,19.7
	C340.8,411.7,334.8,420,327.2,420z M121.8,152c0,64.9,0,129.5,0,193.9c8.7,0,17.1,0,25.9,0c0-1.9,0-3.5,0-5.1c0-38.5,0-77.1,0-115.6
	c0-1.5-0.1-3,0.1-4.5c0.4-5.9,5.1-10.7,11.1-11.3c5.4-0.6,11,3,12.7,8.4c0.6,2.2,0.8,4.6,0.8,6.9c0,38.8,0,77.6,0,116.5
	c0,1.6,0,3.2,0,4.8c8.5,0,16.4,0,24.6,0c0-1.9,0-3.6,0-5.2c0-38.5,0-77.1,0-115.6c0-1.5-0.1-3,0.1-4.5c0.5-5.7,5-10.4,10.8-11.1
	c5.3-0.7,11.2,2.8,12.8,8.1c0.7,2.2,0.8,4.6,0.8,6.9c0,39,0,77.9,0,116.9c0,1.6,0,3.2,0,4.7c8.5,0,16.3,0,24.6,0c0-1.8,0-3.4,0-5
	c0-39.4,0-78.7,0-118.1c0-8,5.1-13.5,12.3-13.5c7.1,0,12.2,5.7,12.3,13.6c0,1.1,0,2.2,0,3.3c0,38.3,0,76.5,0,114.8c0,1.6,0,3.2,0,5
	c7.8,0,15.3,0,22.8,0c0-64.8,0-129.3,0-194C236.2,152,179.2,152,121.8,152z M269.5,127c0.1-0.3,0.2-0.5,0.2-0.6c-0.4-1-0.9-2-1.3-3
	c-7.4-16.3-6.5-32.2,2.9-47.3c10.9-17.6,33.4-26.6,52.7-21.3c5.8,1.6,9.4,6.1,9.5,11.8c0.1,5.4-3.3,10.4-8.5,11.7
	c-2.7,0.6-5.7,0.3-8.5,0c-10.2-1.2-18.4,2.2-24.1,10.7c-5.7,8.5-5.8,17.6-0.4,26.3c5.4,8.6,13.5,12.6,23.8,11.1
	c25.6-3.8,44.1-28,42.2-55.1c-1.8-25.6-24.3-46.6-50.6-46.6c-66.4-0.1-132.7-0.1-199.1,0c-25.9,0-48.1,20.3-50.6,45.7
	c-2.6,26.1,14.6,50,40.1,55.7c17.8,4,33.3-11.9,28.8-29.6c-3.1-12.5-15.2-20.2-28.2-17.9C90,80,83.5,76.2,82.2,69.2
	c-1.3-6.9,3-13,10.5-14.7c29.2-6.7,58.6,16.4,59.3,46.3c0.2,9.2-2.1,17.8-6.5,26.2C187.1,127,228.3,127,269.5,127z M315.7,395.3
	c0-4.2,0-8,0-11.8c0-9.9-2.8-12.7-12.6-12.7c-63.6,0-127.2,0-190.8,0c-1.4,0-2.8-0.1-4.1,0.1c-3.8,0.5-7.4,2.3-7.8,6.2
	c-0.6,6-0.2,12.1-0.2,18.2C172,395.3,243.5,395.3,315.7,395.3z"/>
</svg>
