<?xml version="1.0" encoding="utf-8"?>
<!-- Generator: Adobe Illustrator 27.8.1, SVG Export Plug-In . SVG Version: 6.00 Build 0)  -->
<svg version="1.1" id="Layer_1" xmlns="http://www.w3.org/2000/svg" xmlns:xlink="http://www.w3.org/1999/xlink" x="0px" y="0px"
	 viewBox="0 0 420 420" style="enable-background:new 0 0 420 420;" xml:space="preserve">
<style type="text/css">
	.st0{fill:#C97729;}
	.st1{fill:#FFE278;}
	.st2{fill:#FFCB5B;}
</style>
<path class="st0" d="M209.6,407.6c-25.4,0-50.8,0-76.2,0c-11.7,0-23.1-1.4-34-5.9c-21.8-9-32.8-26.3-37.3-48.5
	c-5.6-27.7-1.6-54.8,6.3-81.4c10-33.4,25.5-63.8,49.6-89.4c12.2-13,26.1-23.6,43.9-27.8c4.6-1.1,9.5-1.4,14.3-1.5
	c20.6-0.2,41.2,0.6,61.8-0.2c22.5-0.9,40.7,7.7,56.6,22.4c24.2,22.3,39.9,50.1,51.5,80.5c8.6,22.5,13.8,45.7,14.3,69.9
	c0.3,13.5-1.4,26.7-6,39.4c-9,25.1-27.4,38.7-53.4,41.4c-13.8,1.5-27.9,0.9-41.9,1.1C242.7,407.7,226.2,407.6,209.6,407.6z"/>
<path class="st1" d="M210.1,145c-20.8,0-41.5,0.1-62.3,0c-8.2,0-13.3-9.1-10.5-18.5c1.7-5.8,5.1-8.7,9.6-8.9
	c4.1-0.1,8.2-0.1,12.3-0.1c36.7,0,73.3,0,110,0c1.2,0,2.4,0,3.6,0c6.3,0.3,10.8,6,10.8,13.7c0,7.8-4.4,13.6-10.8,13.7
	c-13.6,0.1-27.3,0-40.9,0C224.6,145,217.3,145,210.1,145z"/>
<path class="st0" d="M210,104.9c-17.6,0-35.2-0.1-52.9,0.1c-3.1,0-4.5-1-5.8-3.9c-10-22.9-20.2-45.7-30.5-68.4
	c-1.2-2.7-1.1-4.4,0.9-6.7c12.5-14,23-16.7,40.2-10.2c10.8,4.1,21.5,9.1,32.7,11.6c16.5,3.7,32.8,1.4,48.7-5.2
	c8.6-3.6,17.3-6.9,26.3-9.1c14-3.5,24.2,4.3,33.1,14.6c0.6,0.7,0.3,3-0.3,4.2c-11.3,23.3-22.6,46.6-33.9,69.9
	c-1.2,2.5-2.6,3.3-5.2,3.3C245.6,104.8,227.8,104.9,210,104.9z"/>
<path d="M132.3,154.7c-16.6-15.5-13.5-37.9,4.2-49.5c-0.7-1.6-1.5-3.2-2.2-4.8c-10.2-21.5-20.3-43.1-30.6-64.5
	c-1.3-2.7-1.2-4.6,0.8-6.7c3.7-4,7.1-8.4,10.9-12.3C131.9,0,151.2-4.2,173.1,4.7c5.6,2.3,11.2,4.5,16.9,6.6
	c13.2,4.8,26.5,4.7,39.8,0.3c9.6-3.2,19-7,28.8-9.7c16.6-4.6,31.7-0.5,44.5,10.7c6.1,5.3,11.3,11.7,16.7,17.9c0.9,1,0.8,3.7,0.1,5.1
	c-11.2,22-22.5,43.9-33.8,65.8c-0.7,1.4-1.4,2.7-2,4.1c17.6,11.9,19.9,34,3.8,49.2c4.3,3.4,8.7,6.6,12.9,10.1
	c23.8,20.7,40,46.8,52.3,75.5c11.2,26.2,17.9,53.4,18.5,82c0.3,15.9-1.6,31.6-7.5,46.5c-11.9,30.4-34.8,46.6-66.7,50.4
	c-6.4,0.8-12.9,0.9-19.4,0.9c-46.4,0.1-92.8,0-139.2,0c-17.6,0-34.6-2.8-49.9-12c-20.5-12.1-31.6-30.8-36.8-53.5
	c-6.1-26.6-3.4-53,3.3-79.1c9.5-36.7,25.7-70.1,51.5-98.2c6.8-7.4,15.1-13.5,22.7-20.2C130.3,156.2,131.3,155.5,132.3,154.7z
	 M209.7,399.7c15.5,0,31,0.1,46.5,0c13.1-0.1,26.3,0.4,39.3-1c24.4-2.6,41.6-15.3,50.1-38.9c4.3-12,5.8-24.4,5.6-37
	c-0.4-22.6-5.3-44.4-13.4-65.5c-10.9-28.5-25.6-54.6-48.3-75.5c-14.9-13.8-32-21.9-53.1-21c-19.3,0.8-38.6,0.1-58,0.2
	c-4.5,0-9.1,0.4-13.4,1.4c-16.7,3.9-29.7,13.9-41.2,26c-22.6,24-37.2,52.5-46.6,83.9c-7.5,25-11.2,50.4-5.9,76.4
	c4.2,20.8,14.6,37.1,35,45.5c10.2,4.2,20.9,5.5,31.9,5.5C162,399.7,185.8,399.7,209.7,399.7z M210.2,101.7c16.5,0,33,0,49.5,0.1
	c2.4,0,3.7-0.7,4.8-2.9c10.4-20.5,21-40.8,31.5-61.3c0.5-1,0.9-3,0.3-3.6c-8.2-9-17.7-15.9-30.7-12.8c-8.3,2-16.4,4.9-24.4,8
	c-14.7,5.8-29.9,7.8-45.2,4.6c-10.4-2.2-20.3-6.6-30.4-10.2c-15.9-5.7-25.7-3.4-37.3,8.9c-1.9,2-2,3.5-0.9,5.9
	c9.5,20,19,39.9,28.3,60c1.2,2.6,2.5,3.5,5.4,3.4C177.4,101.7,193.8,101.7,210.2,101.7z M210.1,140.6c6.8,0,13.5,0,20.3,0
	c12.7,0,25.4,0.1,38,0c5.9,0,10-4,10-9.2c0-5.2-4.2-9.1-10-9.3c-1.1,0-2.3,0-3.4,0c-34.1,0-68.2,0-102.3,0c-3.8,0-7.6-0.1-11.4,0
	c-4.2,0.1-7.3,2.1-8.9,6c-2.6,6.4,2.1,12.5,9.8,12.5C171.5,140.6,190.8,140.6,210.1,140.6z"/>
<path class="st2" d="M200,223.8c0-5.2,0-11.1,0-17.2c6.7,0,13.2,0,20.1,0c0,5.9,0,11.9,0,18c17.4,5.5,28.4,16.2,30.1,35.2
	c-7,0-13.5,0-20.1,0c-3.4-18-25.4-19.3-34.7-10.3c-8.4,8.1-6.1,20.1,4.9,23.8c5.7,1.9,11.7,3,17.6,4.4c2.5,0.6,4.9,1.2,7.3,2
	c13.5,4.4,22.9,12.7,24.5,27.6c1.7,15.6-4.5,27.5-17.7,35.7c-2.8,1.8-6.2,2.6-9.1,4.3c-1.2,0.6-2.4,2.2-2.5,3.4
	c-0.3,5.1-0.1,10.1-0.1,15.5c-6.8,0-13.3,0-20.3,0c0-4.5-0.2-9,0.1-13.5c0.2-3.4-0.7-5-4.2-6.3c-13.3-4.7-22-13.8-25-27.9
	c-0.4-1.8-0.3-3.6-0.5-5.7c6.7,0,13.2,0,19.6,0c5.3,14.1,17.3,19.7,29.8,13.8c5.7-2.7,9.6-6.9,10-13.6c0.4-7.4-1.8-11.1-9-13.4
	c-6.3-2-12.8-3.3-19.2-5c-2.7-0.7-5.4-1.5-8.1-2.4c-12.6-4.3-21-12.5-22.8-26.2c-1.8-14,2.8-25.7,14.2-34.1
	C189.1,229,194.3,226.9,200,223.8z"/>
</svg>
