<?xml version="1.0" encoding="utf-8"?>
<!-- Generator: Adobe Illustrator 27.8.1, SVG Export Plug-In . SVG Version: 6.00 Build 0)  -->
<svg version="1.1" id="Layer_1" xmlns="http://www.w3.org/2000/svg" xmlns:xlink="http://www.w3.org/1999/xlink" x="0px" y="0px"
	 viewBox="0 0 420 420" style="enable-background:new 0 0 420 420;" xml:space="preserve">
<style type="text/css">
	.st0{fill:#1AA66F;}
	.st1{fill:#D2F1A2;}
	.st2{fill:#A3E440;}
	.st3{fill:#FFFFFF;}
</style>
<path class="st0" d="M361.3,345.5c27-4,47.1-27.6,46-53.6c-1-23.7-6.5-46.9-12.6-69.9c-6.3-24.1-13.8-48-26.7-70
	c-3.1-5.4-7.1-10.4-11.5-15c-5-5.3-8.6-5.2-13.6-0.2c-3.8,3.8-7.2,8-10,12.4c-10.5,16.7-16.9,34.9-22.7,53.3
	c-0.3,1.1-0.3,2.3-0.2,3.4c1,7.4,2.2,14.9,3.3,22.3c4.1,28.7,0.3,56.1-15.7,81.6c-1,1.6-1.1,4.5-0.3,6.3
	c5.1,10.5,13.2,18.7,24.2,24.1c4.9,2.4,10.3,4,16.3,6.2L361.3,345.5z"/>
<path class="st1" d="M81.2,346.1c18.5-4.6,31.3-14.3,38.8-30.1c0.8-1.7,0.3-4.4-0.5-6.4c-3.8-9.4-8.8-18.5-11.9-28.1
	c-7.4-23.1-4.2-46.6-0.7-69.9c0.5-3.1,1.3-6.5,0.5-9.3c-5.4-18.5-11.5-36.7-21.6-53.3c-2.9-4.7-6.6-8.9-10.3-13
	c-3.3-3.7-7.4-3.5-10.7,0c-3.1,3.3-6.4,6.6-8.7,10.5c-4.2,7.2-8.3,14.6-11.5,22.3c-14.3,34.5-22.7,70.6-28,107.3
	c-1.6,11.4-2.9,22.9,1.1,34.2c6.9,19.1,20.6,30.9,41.3,35.9L81.2,346.1z"/>
<path class="st2" d="M228.3,348.5c49.9-9.5,84.3-51.7,80.1-100.6c-2-23.8-6.4-47.6-11.5-71.1c-8.5-39.6-20.8-78.3-38.9-114.9
	c-8-16.2-16.8-32-31-44.1c-12.3-10.4-21.8-10.4-34.1,0.1c-14,12-23,27.6-30.7,43.7c-27.7,58.5-44.1,120-50.7,183.9
	c-4.3,41.8,20,80.8,59.8,96.8c8.6,3.4,17.8,5.2,27.7,8.1L228.3,348.5z"/>
<path d="M307.8,166.8c1.2-2.9,1.9-4.9,3-6.7c5.4-9.3,10.1-19,16.5-27.5c7.2-9.6,17.1-15.1,29.9-11.2c8.5,2.6,14.3,8.7,19.3,15.6
	c9.3,12.9,15.4,27.4,20.4,42.3c11.4,33.6,19.6,67.9,22.8,103.3c3.3,36.2-20.3,68.4-55.8,76c-1.4,0.3-3.7,1.9-3.7,2.9
	c-0.3,12.6-0.2,25.2-0.2,38.4c2.7,0,5,0,7.2,0c13.7,0,27.5-0.1,41.2,0c6.8,0,10.6,3.2,11.1,8.9c0.6,5.7-2.7,10.1-8.4,11
	c-1.5,0.2-3.1,0.2-4.7,0.2c-131,0-262.1,0-393.1,0c-5,0-9.8-0.4-12.3-5.7C-2,407.5,2.3,400.4,10,400c6.5-0.3,13.1-0.1,19.6-0.1
	c9.8,0,19.6,0,29.9,0c0-13.5,0-26.8,0-40.6c-1.7-0.4-3.6-0.8-5.6-1.3c-34.1-8.3-56.7-39-53.6-74.9c3.8-43.4,14.1-85.3,31.4-125.4
	c4.4-10.2,9.8-19.9,17.7-27.8c13.1-13.2,28.5-13.1,41.4,0.3c8.3,8.7,13.7,19.2,18.5,30.1c0.8,1.8,1.6,3.6,2.9,6.6
	c2.4-9.2,4.4-17.1,6.6-25c9.6-33.9,20.3-67.5,38.3-98c6.1-10.4,13.3-20.5,21.7-29.1C198-5,221.2-4.8,241.1,14.5
	c13.4,13,22.5,29,30.4,45.6c16,33.4,26.7,68.7,35.5,104.6C307.1,165,307.2,165.3,307.8,166.8z M219.9,339.3c2.7-0.3,4.7-0.5,6.6-0.9
	c45.4-8.9,76.6-48.6,72.8-94.6c-1.9-22.4-5.9-44.8-10.5-66.8c-7.8-37.3-18.9-73.6-35.4-108c-7.3-15.2-15.3-30.1-28.2-41.4
	c-11.1-9.8-19.9-9.8-31,0.1c-12.8,11.3-20.9,25.9-27.9,41.1c-25.2,55-40.1,112.8-46.1,172.9c-3.9,39.3,18.2,76,54.4,91
	c7.8,3.2,16.2,4.9,25.2,7.6c0-8.2-0.1-14.9,0.1-21.5c0.1-3.2-0.8-5.5-3.2-7.8c-7.7-7.5-15.3-15.1-22.8-22.8
	c-1.6-1.6-3.1-3.6-3.8-5.7c-1.4-4.2,0.5-8.7,4.2-11c3.7-2.4,8.5-2.1,12.1,1.2c4.3,3.9,8.4,8.1,13.4,13.1c0-9.9,0.2-18.6-0.1-27.2
	c-0.1-2.5-1.3-5.5-3-7.2c-7.7-8.2-15.8-15.9-23.7-23.9c-4.4-4.5-4.4-10.6-0.3-14.6c4-3.9,9.7-3.7,14.3,0.4c1.6,1.5,3.1,3.1,4.7,4.6
	c2.5,2.4,4.9,4.8,8.1,7.9c0-12.3,0-23.4,0-34.4c0-6.8,4-11.3,9.8-11.3c6-0.1,10,4.6,10.1,11.6c0,7.2,0,14.3,0,21.5
	c0,3.9,0,7.9,0,11.8c0.5,0.2,0.9,0.4,1.4,0.6c2.3-2.5,4.4-5.2,6.8-7.6c8.6-8.7,13.8-10,18.9-5c5.2,5.1,3.7,10.6-4.9,19.2
	c-3.6,3.6-6.9,7.8-11,10.8c-9.4,7-12.9,15.9-11.3,27.4c0.7,4.8,0.1,9.7,0.1,14.5c0.4,0.1,0.9,0.3,1.3,0.4c3.5-3.7,7-7.5,10.6-11.2
	c5.1-5.1,11.1-5.4,15.3-1.2c4.2,4.3,3.8,10.3-1.2,15.3c-7.8,7.9-15.7,15.6-23.5,23.5c-1.1,1.1-2.4,2.8-2.4,4.2
	C219.8,323.5,219.9,331.1,219.9,339.3z M360,338.6c23.3-3.8,40.7-25.8,39.8-50.1c-0.9-22.2-5.6-43.8-10.8-65.3
	c-5.5-22.6-12-44.8-23.1-65.4c-2.7-5-6.2-9.7-9.9-14c-4.3-4.9-7.4-4.9-11.7-0.2c-3.3,3.5-6.2,7.4-8.6,11.6
	c-9.1,15.6-14.6,32.6-19.6,49.8c-0.3,1-0.3,2.1-0.1,3.2c0.9,6.9,1.9,13.9,2.8,20.8c3.5,26.8,0.2,52.5-13.6,76.3
	c-0.9,1.5-0.9,4.2-0.2,5.9c4.4,9.8,11.4,17.4,20.9,22.5c4.2,2.3,8.9,3.7,14.1,5.8c0-2.9,0-4.6,0-6.3c0-10.6-0.1-21.2,0-31.8
	c0.1-7.3,4.4-11.7,10.8-11.3c5.7,0.3,9.2,4.5,9.3,11.3C360.1,313.6,360,325.9,360,338.6z M79.9,339c16.8-4.3,28.3-13.4,35.2-28.1
	c0.7-1.6,0.3-4.1-0.4-5.9c-3.5-8.8-8-17.3-10.8-26.3c-6.7-21.6-3.8-43.5-0.7-65.3c0.4-2.9,1.2-6.1,0.5-8.7
	c-4.9-17.2-10.4-34.3-19.6-49.8c-2.6-4.4-6-8.3-9.4-12.2c-3-3.4-6.7-3.3-9.7,0c-2.8,3.1-5.8,6.2-7.9,9.8
	c-3.8,6.7-7.5,13.7-10.4,20.8c-13,32.2-20.6,65.9-25.4,100.2c-1.5,10.7-2.6,21.4,1,31.9c6.2,17.9,18.6,28.8,37.5,33.5
	c0-2.1,0-3.6,0-5.2c0-10.8,0-21.5,0-32.3c0-7.2,3.9-11.5,10-11.6c6.2,0,9.9,4.2,10,11.5c0.1,4,0,8.1,0,12.2
	C79.9,321.9,79.9,330.1,79.9,339z M130.5,326c-0.6,0.5-1,0.6-1.1,0.8c-11,17.1-26.4,27.9-46.4,31.8c-2.6,0.5-3.1,1.9-3.1,4.2
	c0.1,11.4,0,22.7,0.1,34.1c0,0.9,0.3,1.7,0.5,2.5c39.9,0,79.6,0,119.2,0c0-13.6,0-26.7,0-39.9C172.5,356.5,149.5,345.4,130.5,326z
	 M289.7,325.7c-19.4,19.8-42.5,30.9-69.5,33.9c0,13.6,0,26.7,0,40c40,0,79.6,0,119.5,0c0-13.5,0-26.7,0-40.2
	C318.2,355.5,301.6,344.4,289.7,325.7z"/>
<path class="st3" d="M220.6,227.6"/>
<path class="st3" d="M223.3,320"/>
</svg>
