<?xml version="1.0" encoding="utf-8"?>
<!-- Generator: Adobe Illustrator 27.8.1, SVG Export Plug-In . SVG Version: 6.00 Build 0)  -->
<svg version="1.1" id="Layer_1" xmlns="http://www.w3.org/2000/svg" xmlns:xlink="http://www.w3.org/1999/xlink" x="0px" y="0px"
	 viewBox="0 0 420 420" style="enable-background:new 0 0 420 420;" xml:space="preserve">
<style type="text/css">
	.st0{fill:#E7A661;}
	.st1{fill:#DFDDE2;}
</style>
<path class="st0" d="M373.1,180.6c8.6,49.6,17.1,98.8,25.6,148.2c-125.8,0-251.3,0-377.4,0c8.5-49.3,17-98.3,25.6-147.8
	C68.9,181,362.5,180.6,373.1,180.6z"/>
<path class="st1" d="M117.2,252.4C135.7,189.5,154,127,172.5,64c53.8,18,107.2,36,161,54c-0.5,1.8-0.8,3.5-1.2,5
	c-12.6,41.8-25.1,83.6-37.7,125.4c-0.7,2.5-1.3,4.3-4.6,4.3c-56.7-0.1-113.5-0.1-170.2-0.1C119.1,252.6,118.5,252.5,117.2,252.4z"/>
<path d="M166.5,48c2.7-0.9,8,0.7,8.8,0.9C231.2,67,287.2,85,343.1,103c10.3,3.3,13.5,9.5,10.3,19.8c-3.7,11.7-7.4,23.4-11,35.1
	c-0.4,1.4-0.8,2.7-1.2,4.5c12.2,0,23.8-0.1,35.4,0c7.8,0.1,12.5,4.1,13.9,11.7c8,43.1,15.9,86.1,23.9,129.2
	c1.8,9.5,3.8,18.9,5.7,28.4c0,2.2,0,4.4,0,6.6c-3.1,7.6-8.8,10-16.8,10c-128.8-0.2-257.5-0.2-386.3,0c-8.1,0-13.7-2.5-16.9-10
	c0-2.2,0-4.4,0-6.6c0.5-2.1,1.2-4.2,1.6-6.3C10.7,276,19.8,226.4,29,176.9c2.1-11.5,5.8-14.4,17.5-14.4c24.9,0,49.8-0.1,74.6,0.1
	c3.3,0,4.7-0.9,5.6-4.1c9.7-32.3,19.7-64.5,29.4-96.7C157.9,55.6,160.6,50.7,166.5,48z M316.2,242.3c3.3,0,6.1,0,9,0
	c3,0,6-0.1,9,0.1c8.1,0.4,13.7,7.7,12.1,15.6c-1.4,6.8-6.7,10.6-14.9,10.6c-80.9,0-161.9,0-242.8,0c-1.2,0-2.5,0-3.7-0.1
	c-6.9-1-12-7-11.6-13.7c0.4-7,5.7-12.2,12.8-12.4c3.4-0.1,6.9-0.2,10.2,0c3.4,0.3,5-0.7,6-4.2c3.4-12.1,7.2-24.1,10.9-36.1
	c1.3-4.3,2.6-8.5,4-13c-21.5,0-42.6,0-63.8,0c-8.2,44.4-16.3,88.5-24.5,132.7c121,0,241.4,0,362.1,0c-8.2-44.4-16.4-88.5-24.6-133.1
	c-10.2,0-20.1,0.1-30.1-0.1c-2.9-0.1-4,1-4.8,3.6c-4.7,15.4-9.5,30.8-14.3,46.1C316.9,239.5,316.6,240.7,316.2,242.3z M128.5,242.1
	c1.2,0.1,1.8,0.2,2.3,0.2c51.5,0,103.1,0,154.6,0.1c3,0,3.5-1.6,4.2-3.8c11.4-36.5,22.8-72.9,34.2-109.4c0.4-1.4,0.7-2.8,1.1-4.4
	c-48.9-15.8-97.4-31.4-146.2-47.1C162,132.7,145.3,187.2,128.5,242.1z"/>
</svg>
