<?xml version="1.0" encoding="utf-8"?>
<!-- Generator: Adobe Illustrator 26.0.1, SVG Export Plug-In . SVG Version: 6.00 Build 0)  -->
<svg version="1.1" id="Layer_1" xmlns="http://www.w3.org/2000/svg" xmlns:xlink="http://www.w3.org/1999/xlink" x="0px" y="0px"
	 viewBox="0 0 420 420" style="enable-background:new 0 0 420 420;" xml:space="preserve">
<style type="text/css">
	.st0{fill:#F6C244;}
</style>
<g>
	<path d="M66.9,377.2c1.8-10.7,3.6-21.4,5.5-32.1c4.1-23.7,8.1-47.5,12.2-71.1c0.7-4.1-0.2-7-3.3-10.1
		c-23.6-22.9-47.1-45.8-70.6-68.8c-11.8-11.5-14.1-28.5-5.8-42c5.6-9.2,13.8-14.7,24.5-16.2c32.8-4.8,65.6-9.7,98.4-14.3
		c4-0.6,6.1-2.3,7.8-5.8c14.5-29.7,29-59.3,43.7-88.7c9.7-19.3,33-25.6,50-13.1c4.8,3.5,9,8.7,11.6,14.1
		c14.8,29,29.1,58.2,43.3,87.5c1.8,3.9,4.2,5.6,8.5,6.2c32.5,4.6,64.9,9.3,97.4,14.2c13.8,2.1,23.4,9.7,27.9,22.9
		c4.5,13.2,1.5,25.3-8.5,35c-23,22.8-46.3,45.4-69.7,67.9c-4.1,3.9-5.3,7.5-4.4,13.1c5.7,31.6,10.9,63.2,16.4,94.9
		c2.4,14.2-2.1,25.9-13.6,34.3c-11.6,8.4-24.1,8.6-36.8,1.9c-28.5-15-57.1-29.9-85.5-45.1c-4.2-2.2-7.5-2.4-11.8-0.1
		c-28.8,15.4-57.8,30.7-86.8,45.7c-19.6,10.2-42.5,0.7-48.7-20C67.9,384,67.7,380.8,66.9,377.2z M96.5,376.4c-0.4,4.6,3.2,7,7.6,5
		c1-0.5,1.9-1,2.8-1.5c28.4-14.9,56.8-29.7,85.2-44.8c12.2-6.5,24.1-6.3,36.4,0.2c28.7,15.3,57.6,30.4,86.4,45.3
		c1.8,1,5.1,1.5,6.5,0.4c1.5-1,2.3-4.2,1.9-6.2c-5.3-31.7-10.5-63.6-16.4-95.2c-2.7-14.5,1-26.3,11.6-36.6
		c23.1-22.2,46-44.7,68.9-67.2c1.6-1.6,3.5-4.8,2.8-6.4c-0.8-1.9-3.9-3.6-6.2-4c-29.9-4.5-59.9-9.5-89.8-12.8
		c-18.3-2.2-30.7-10.1-38.3-27.1C246,102.8,234.5,81,223.6,58.9c-2.9-5.9-5.8-12-9-17.8c-2.4-4.4-6.5-4.4-9.2,0
		c-0.6,1.1-1.1,2.2-1.7,3.3c-14.1,28.6-28.4,57.2-42.3,85.9c-6.2,12.7-16,19.5-29.9,21.3c-31.9,4.4-63.9,9.1-95.6,13.9
		c-2.3,0.4-5.5,2.2-6.2,4c-0.6,1.5,1.2,4.7,2.9,6.3c6.3,6.5,13,12.7,19.5,19.1c16.8,16.4,33.6,32.8,50.4,49.2
		c9.5,9.1,13.3,20,11.1,33c-3.2,18.3-6.3,36.7-9.5,55C101.6,346.7,99,361.5,96.5,376.4z"/>
	<path class="st0" d="M96.5,376.4c2.5-15,5.1-29.8,7.6-44.5c3.2-18.3,6.4-36.7,9.5-55c2.2-13-1.6-23.7-11.1-33
		c-17-16.2-33.7-32.7-50.4-49.2c-6.5-6.3-13.2-12.6-19.5-19.1c-1.6-1.7-3.5-4.8-2.9-6.3c0.8-1.9,3.9-3.6,6.2-4
		c31.9-4.8,63.7-9.6,95.6-13.9c13.9-1.9,23.7-8.7,29.9-21.3c13.9-28.7,28.2-57.3,42.3-85.9c0.5-1.1,1.1-2.2,1.7-3.3
		c2.5-4.2,6.8-4.4,9.2,0c3.2,5.8,5.9,11.9,9,17.8c10.9,22.1,22.5,43.9,32.5,66.4c7.6,17.2,20,25.1,38.3,27.1
		c30.1,3.5,60,8.4,89.8,12.8c2.3,0.4,5.5,2.2,6.2,4c0.6,1.5-1.2,4.7-2.8,6.4c-22.9,22.5-45.8,45.1-68.9,67.2
		c-10.7,10.3-14.3,22.1-11.6,36.6c5.8,31.7,11,63.5,16.4,95.2c0.4,2.1-0.5,5.2-1.9,6.2c-1.5,1-4.7,0.6-6.5-0.4
		c-28.8-15-57.7-30-86.4-45.3c-12.2-6.5-24.1-6.7-36.4-0.2c-28.4,15-56.7,29.9-85.2,44.8c-1,0.5-1.8,1-2.8,1.5
		C99.7,383.4,96.3,381,96.5,376.4z"/>
</g>
</svg>
