<?xml version="1.0" encoding="utf-8"?>
<!-- Generator: Adobe Illustrator 27.8.1, SVG Export Plug-In . SVG Version: 6.00 Build 0)  -->
<svg version="1.1" id="Layer_1" xmlns="http://www.w3.org/2000/svg" xmlns:xlink="http://www.w3.org/1999/xlink" x="0px" y="0px"
	 viewBox="0 0 420 420" style="enable-background:new 0 0 420 420;" xml:space="preserve">
<style type="text/css">
	.st0{fill:#FFE177;}
	.st1{fill:#2EBAC8;}
	.st2{fill:#678D98;}
	.st3{fill:#FD8087;}
	.st4{fill:#DEECF1;}
</style>
<path class="st0" d="M344.6,198.4l-134.2-57.1c-4.1-1.7-6-6.4-4.2-10.5l50.9-119.3c1.7-4.1,6.4-6,10.5-4.2l134.2,57.1
	c4.1,1.7,6,6.4,4.2,10.5l-50.9,119.3C353.4,198.2,348.7,200.1,344.6,198.4z"/>
<path d="M396.3,65.9c4.3,1.8,6.3,6.8,4.4,11.1L353,188.9c-1.8,4.3-6.8,6.3-11.1,4.4l-126-53.7c-4.3-1.8-6.3-6.8-4.4-11.1l47.7-111.9
	c1.8-4.3,6.8-6.3,11.1-4.4L396.3,65.9 M400.8,55.3l-126-53.7c-10.2-4.3-21.9,0.4-26.3,10.6l-47.7,111.9
	c-4.3,10.1,0.4,21.9,10.6,26.2l126,53.7c10.2,4.3,21.9-0.4,26.3-10.6l47.7-111.9C415.7,71.4,411,59.6,400.8,55.3L400.8,55.3z"/>
<path class="st1" d="M294.4,198H147.7c-4.4,0-8-3.6-8-8V59.5c0-4.4,3.6-8,8-8h146.7c4.4,0,8,3.6,8,8V190
	C302.4,194.4,298.8,198,294.4,198z"/>
<path d="M289.6,55.5c4.7,0,8.4,3.8,8.4,8.4v121.7c0,4.7-3.8,8.4-8.4,8.4h-137c-4.7,0-8.4-3.8-8.4-8.4V63.9c0-4.7,3.8-8.4,8.4-8.4
	H289.6 M289.6,43.9h-137c-11,0-20,9-20,20v121.7c0,11,9,20,20,20h137c11,0,20-9,20-20V63.9C309.6,52.9,300.6,43.9,289.6,43.9
	L289.6,43.9z"/>
<polygon class="st2" points="111.4,106.3 404.2,106.3 367.4,254.7 345.9,271.1 153.9,271.1 "/>
<path class="st3" d="M86.3,64.8c-3.2,4.9-6.2,9.4-9.5,14.4c-0.4-0.3-1.4-0.9-2.2-1.7c-8.2-7.9-17.1-11.8-26.8-11.8
	c-8.5,0-17.1,0.1-25.6,0c-5.2,0-8.4-4.2-8.3-10.5C13.9,48.9,17,44.7,22,45c13.7,0.7,27.4,0.8,41,3C71.6,49.4,79.3,56.4,86.3,64.8z"
	/>
<path class="st4" d="M75.2,72.9c2.2-2.2,14.3-4.9,17.2-7.7c5,6.1,11.3,19.2,13.2,26.7c15.2,59.6,30.5,116,45.8,175.5
	c1.6,6.3,2.8,7.3,9.2,7.3c33.8,0,67.7,0,101.5,0c1.4,0,2.8,0,4.3,0c-2.1,7.2-8.4,18.1-16.5,18.1c-18,0.1-36.1,0-54.1,0
	c-14,0-27.9-0.1-41.9,0.1c-2.4,0-5,0.8-7,1.9c-13.8,7.6-25.4,12.3-39.1,20.1c-8.4,4.8-11.9,12.5-9.7,20.7
	c2.3,8.4,9.1,10.1,18.7,10.1c85.7,0,164,0,249.7,0c1.4,0,6.1-0.1,7.5,0.1c3.1,0.5,6.1,5.6,6.1,8.8c0.1,3.4-2.9,8.5-6.2,9.2
	c-1,0.2-5.3,0.1-6.3,0.1c-86.1,0-176.4,0-262.5,0c-18.3,0-31.9-16.5-31.1-34c0.5-10.8,5.6-19,15-24.5c12.3-7.1,24.7-14.1,37-21.1
	c5.3-3,6-4.5,4.4-10.6c-15.2-59.3-30.3-118.6-45.6-177.9C83.4,90.3,77.4,78.7,75.2,72.9z"/>
<path class="st2" d="M143.2,368.6c12-0.1,21.9,9.8,21.9,21.8c0,12-9.9,21.8-21.9,21.8c-11.8-0.1-21.5-9.7-21.6-21.5
	C121.4,378.6,131.2,368.7,143.2,368.6z"/>
<path class="st2" d="M324.5,390.4c0-12,9.9-21.8,21.9-21.8c12,0,21.8,10,21.7,22c-0.1,11.8-9.8,21.5-21.6,21.6
	C334.5,412.2,324.6,402.4,324.5,390.4z"/>
<g>
	<path d="M402.8,100.1c-94.3,0.1-188.5,0.1-282.8,0.1c-1.7,0-3.4,0-5,0c-2.1-6.8-3.5-13.5-6.1-19.7c-9.6-22.9-28.3-37.6-51.5-40.4
		c-0.8-0.1-24.9-0.7-36.2-0.7C14.9,39.4,7,47.1,7,53.6c0,2.4,0,4.7,0,7.1c0,8.6,11.1,15,22.1,14.3c6-0.4,12.1-0.1,18.2-0.1
		c15.3,0.1,26.3,8.5,30.1,23.4c14.8,57.8,29.6,115.6,44.5,173.3c0.7,2.8,0.1,3.9-2.3,5.2C108.3,283.1,97,289.3,86,296
		c-15.6,9.4-22.9,27.8-18.4,45.4c4.9,19,21.2,31.3,41.8,31.3c3.4,0,6.8,0,10.3,0c-2.3,3.1-4.1,6.6-5,10.4
		c-3.5,14.2,3.6,28.7,16.9,34.5c2.4,1,4.9,1.7,7.4,2.5c2.9,0,5.8,0,8.7,0c1.1-0.3,2.2-0.7,3.4-1c13.9-3.8,23.2-17.2,21.8-31.3
		c-0.5-5.6-2.7-10.8-5.9-15.1c51.9,0,103.8,0,155.8,0c-2.3,3.1-4.1,6.6-5,10.4c-3.5,14.2,3.6,28.7,16.9,34.5c2.4,1,4.9,1.7,7.4,2.5
		c2.9,0,5.8,0,8.7,0c1.1-0.3,2.2-0.7,3.4-1c13.9-3.8,23.2-17.2,21.8-31.3c-0.5-5.6-2.7-10.8-5.9-15.1c0.4,0,0.9,0,1.3,0
		c9.3-0.7,16.6-8.6,16.5-17.9c-0.1-10.2-8.1-17.6-19.3-17.6c-81.9,0-163.8,0-245.7,0c-4.9,0-9.7,0-14.6,0c-3.5,0-5.8-1.8-6.3-5.3
		c-0.4-3.2,1.6-5,4.2-6.5c12.9-7.3,25.8-14.7,38.8-21.9c2-1.1,4.4-1.7,6.6-1.7c30.9-0.1,61.9,0,92.8-0.1c13.5,0,24.5-8,28.6-20.7
		c0.9-2.7,2.2-3,4.5-3c18.8,0.1,37.7,0.1,56.5,0c21.1,0,36.8-12.1,42.1-32.4c8.7-33.8,17.3-67.7,26-101.6
		c3.1-11.9,6.3-23.9,9.5-35.8c0-1.3,0-2.6,0-3.9C409.5,100.8,406.5,100.1,402.8,100.1z M143.2,408.1c-9.6,0-17.6-8-17.7-17.6
		c-0.1-9.8,7.9-17.9,17.7-17.9c9.8,0,17.9,8,17.9,17.8C161,400.2,153,408.2,143.2,408.1z M293.1,112.3c15.4,0,30.7,0,46.5,0
		c-2.2,14.4-4.4,28.5-6.6,42.9c-14,0-27.9,0-42.1,0C291.6,140.9,292.4,126.8,293.1,112.3z M230.7,265.7c-10.3,0-20.3,0-30.8,0
		c-2.2-14.2-4.4-28.4-6.6-42.9c11.8,0,23.3,0,35.2,0C229.2,237.1,229.9,251.2,230.7,265.7z M222.8,112.2c0.8,14.2,1.5,28.5,2.3,43.2
		c-6.4,0-12.5,0-18.7,0c-1.4,0-2.9-0.1-4.3,0c-4,0.2-6.4,2.5-6.3,6.1c0.1,3.3,2.4,5.7,6.2,5.7c6.3,0.1,12.6,0,18.9,0
		c1.4,0,2.9,0,4.7,0c0.7,14.5,1.5,28.7,2.2,43.2c-12.2,0-24.1,0-36.4,0c-5-32.7-10-65.4-15.1-98.3
		C191.8,112.2,207,112.2,222.8,112.2z M187.9,266c-9.9,0-19.4,0-28.9-0.1c-0.8,0-2.2-1-2.4-1.8c-3.6-13.7-7.1-27.4-10.6-41.4
		c11.8,0,23.3,0,35.2,0C183.5,237,185.7,251.2,187.9,266z M179.4,210.5c-12.3,0-24.2,0-36.5,0c-3.6-14.2-7.3-28.5-11-43
		c13.8,0,27.2,0,40.9,0C175,181.8,177.2,196.1,179.4,210.5z M164.3,112.2c2.2,14.2,4.4,28.5,6.6,43.1c-14.3,0-28,0-42.2,0
		c-3.7-14.4-7.3-28.7-11-43.1C133.3,112.2,148.5,112.2,164.3,112.2z M73.1,70.8c-0.4-0.2-1.2-0.5-1.9-1c-7-4.5-14.7-6.8-23.1-6.8
		c-7.4,0-14.7,0-22.1,0c-4.5,0-7.2-2.4-7.2-6c0.1-3.5,2.7-5.9,7-5.8c11.8,0.4,23.6,0.5,35.3,1.7c7.5,0.8,14.1,4.8,20.1,9.6
		C78.5,65.4,75.9,68,73.1,70.8z M346.4,408.1c-9.8,0.1-17.9-8-17.9-17.7c0-9.8,8-17.8,17.8-17.8c9.8,0,17.8,8.1,17.7,17.9
		C364,400.2,356.1,408.1,346.4,408.1z M244.5,289.7c-18,0.1-36.1,0-54.1,0c-14,0-27.9-0.1-41.9,0.1c-2.4,0-5,0.8-7,1.9
		c-13.8,7.6-27.5,15.5-41.2,23.3c-8.4,4.8-11.9,12.5-9.7,20.7c2.3,8.4,9.1,13.2,18.7,13.2c85.7,0,171.4,0,257.1,0
		c1.4,0,2.9-0.1,4.3,0.1c3.1,0.5,5,2.5,5.1,5.6c0.1,3.4-1.9,5.4-5.1,6c-1,0.2-2.1,0.1-3.2,0.1c-86.1,0-172.2,0-258.3,0
		c-18.3,0-31.9-13.3-31.1-30.9c0.5-10.8,5.6-19,15-24.5c12.3-7.1,24.7-14.1,37-21.1c5.3-3,6-4.5,4.4-10.6
		C119.5,214.5,104.3,155.2,89,95.9c-1.5-5.6-4.2-10.9-6.5-16.7c2.2-2.2,4.9-4.9,7.7-7.7c5,6.1,8.1,12.9,10,20.3
		c15.2,59.6,30.5,119.1,45.8,178.7c1.6,6.3,2.8,7.3,9.2,7.3c33.8,0,67.7,0,101.5,0c1.4,0,2.8,0,4.3,0
		C259,285,252.6,289.6,244.5,289.7z M273.4,265.7c-10.2,0-20.3,0-30.8,0c-0.7-14.3-1.5-28.4-2.2-42.8c11.6,0,23.1,0,35.2,0
		C274.8,237,274.1,251.2,273.4,265.7z M276.2,210.6c-12.3,0-24.1,0-36.5,0c-0.7-14.3-1.5-28.5-2.2-43c13.6,0,27,0,40.8,0
		C277.6,181.8,276.9,196,276.2,210.6z M279,155.3c-14.2,0-27.9,0-42.1,0c-0.8-14.2-1.5-28.4-2.3-43c15.4,0,30.7,0,46.6,0
		C280.5,126.5,279.8,140.8,279,155.3z M316,265.8c-10.3,0-20.2,0-30.7,0c0.7-14.3,1.5-28.5,2.2-43c11.7,0,23.2,0,35.1,0
		C320.4,237.3,318.2,251.5,316,265.8z M288.1,210.5c0.7-14.4,1.4-28.5,2.2-42.9c13.6,0,26.9,0,40.8,0c-2.2,14.3-4.4,28.5-6.6,42.9
		C312.5,210.5,300.6,210.5,288.1,210.5z M362.4,248.5c-4.6,11.2-13.9,16.7-25.9,17.5c-2.6,0.2-5.2,0-8.5,0
		c2.3-14.7,4.4-28.9,6.6-43.3c11.7,0,23.1,0,35.2,0C367.3,231.5,365.7,240.3,362.4,248.5z M372.7,210.6c-12.2,0-24,0-36.2,0
		c2.2-14.6,4.4-28.7,6.6-43c13.6,0,26.9,0,40.6,0C380,182,376.4,196.3,372.7,210.6z M386.9,155.3c-13.8,0-27.6,0-41.9,0
		c2.2-14.4,4.4-28.5,6.6-43c15.4,0,30.7,0,46.3,0C394.2,126.7,390.6,140.9,386.9,155.3z"/>
	<path d="M143.4,384.5c-3.1-0.1-5.8,2.4-6,5.5c-0.2,3.3,2.5,6.2,5.7,6.2c3.3,0.1,6.1-2.7,6.1-5.9
		C149.2,387.2,146.6,384.6,143.4,384.5z"/>
	<path d="M346.4,384.5c-3.1,0-5.8,2.5-6,5.6c-0.2,3.3,2.5,6.1,5.8,6.2c3.1,0,5.8-2.5,6-5.6C352.4,387.4,349.7,384.5,346.4,384.5z"/>
</g>
</svg>
