<?xml version="1.0" encoding="utf-8"?>
<!-- Generator: Adobe Illustrator 27.8.1, SVG Export Plug-In . SVG Version: 6.00 Build 0)  -->
<svg version="1.1" id="Layer_1" xmlns="http://www.w3.org/2000/svg" xmlns:xlink="http://www.w3.org/1999/xlink" x="0px" y="0px"
	 viewBox="0 0 420 420" style="enable-background:new 0 0 420 420;" xml:space="preserve">
<style type="text/css">
	.st0{fill:#60CFF7;}
	.st1{fill:#FFFFFF;}
	.st2{fill:#6E7DD3;}
</style>
<path class="st0" d="M406.4,139.9c-8.6-20.5-29.3-33.8-52.4-33.8c-12.8,0-18-6.2-15.2-17.9c6.9-29.2-11.9-57.7-42.6-64.6
	c-29.6-6.6-60.9,11.3-66.5,40.1c-3.2,16.3-2.3,267-2,279.6c0.5,22.3,11.3,39.1,32.2,48.7c20.7,9.5,41.1,7.2,58.9-6.5
	c18.1-13.9,24.6-32.4,19.9-54.4c-0.5-2.4-1-5-0.6-7.3c0.8-5.5,6.1-10.5,15.4-10.3c23.3,0.4,44-13,52.7-33.3
	c8.8-20.6,3.7-43.7-12.9-59.2c-8.6-8-8.6-14.1,0-22.1C409.9,183.3,415,160.3,406.4,139.9z"/>
<path class="st1" d="M338.9,210c0.1-9-7.5-16.6-16.5-16.5c-8.8,0.1-16.2,7.5-16.1,16.4c0,8.8,7.4,16.2,16.2,16.3
	C331.3,226.2,338.8,218.8,338.9,210z"/>
<path class="st1" d="M307.3,287.1c0-8.4-7.1-15.5-15.5-15.6c-8.5-0.1-15.6,7-15.7,15.4c-0.1,8.6,7.2,16,15.8,15.9
	C300.3,302.6,307.3,295.5,307.3,287.1z"/>
<path class="st1" d="M307.3,132.7c0.1-8.4-6.9-15.7-15.3-15.8c-8.4-0.2-15.7,6.8-16,15.2c-0.3,8.6,6.9,16.1,15.6,16.1
	C300,148.2,307.2,141.1,307.3,132.7z"/>
<path class="st2" d="M126.1,262.6c-22-31.4-22-73.7,0-105.2c23.1-33,61.7-45.1,91.5-39c0-49.2,0-87.4,0-95.4c-10.4,0-26.7,0-36.9,0
	c-1.4,10.4-2.6,20.5-4.1,30.6c-1.1,7.6-4.1,10.6-11.8,12.3c-18.1,3.9-26.8,8.5-42.4,18.1c-7.3,4.5-11.7,4.2-18.5-0.9
	C95.6,77,87.3,70.8,79.4,64.9c-7.8,7.5-19.5,18.9-27.3,26.4c5.9,7.2,11.9,14.7,18,22.3c6.5,8.1,6.7,11.6,1.1,20.1
	c-9.1,13.8-13.5,23.4-17.4,39.3c-2.8,11.5-5.3,13.7-17.6,15c-9.4,1-18.7,2.3-28,3.4c0,10.7,0,27,0,37.4c10.7,1.3,21.2,2.5,31.7,3.9
	c8.2,1.1,11.3,3.9,13.1,11.6c3.9,16.6,8.2,27,17.6,41.4c6.3,9.6,6.1,12.7-1.1,21.5c-6,7.4-12,14.8-17.4,21.5
	c8,7.6,19.7,19,27.4,26.4c7.9-5.9,16.1-12.1,24.4-18.2c6.4-4.8,11.1-5.1,17.8-1c15.9,9.8,23.7,14.5,42.2,18.4
	c7.2,1.5,10.4,4.7,11.4,11.7c1.5,10.3,2.8,20.7,4.2,31.2c10.4,0,27.8,0,37.9,0c0-8,0-46.2,0-95.4
	C187.4,307.7,148.9,295.4,126.1,262.6z"/>
<path class="st1" d="M217.6,301.6C217.6,301.6,217.6,301.6,217.6,301.6c0-61.3,0-122.3,0-183.2c0,0,0,0,0,0
	C217.6,174.7,217.6,245.3,217.6,301.6z"/>
<path d="M418,239.5c-2.5-11-7.5-20.7-14.5-29.7c7-9,12-18.7,14.5-29.7c1.2-4.6,2-13,2-17.9c0-4.9-1.7-15.3-3.1-19.6
	c-9-27.6-27.7-44.7-56-51.2c-1.1-0.3-2.2-0.5-2.5-0.6c-1.4-8.9-1.6-17.7-4.1-25.8c-9.3-29.8-29.7-47.2-60.5-52.5
	c-11.7-1.9-25.4,0.9-29.6,2.1c-11.5,3.2-21.4,8.8-29.8,16.5c0-1.3,0-2.7,0-4c0-0.7,0-1.5-0.1-2.2c-0.8-6.5-4.9-12.9-10.6-12.9
	c-18.6,0-33,0-51.5,0c-5.9,0-10.5,7.2-11.1,13.5c-0.8,8.8-2.1,17.6-3.3,26.4c-0.2,1.1-1.4,2.8-2.5,3c-12.8,3.6-25,8.6-36.5,15.3
	c-1.9,1.1-2.9,0.6-4.4-0.6C107,64,99.7,58.4,92.3,52.7c-6.7-5.2-12.1-4.9-18.1,1.1C63.4,64.7,52.5,75.5,41.7,86.3
	c-6,6-6.3,11.4-1.1,18.1c5.7,7.3,11.3,14.7,17.1,21.9c1.3,1.7,1.4,2.9,0.4,4.7c-6.5,11.3-11.5,23.2-14.9,35.9
	c-0.5,2-1.5,2.8-3.6,3.1c-8.7,0.9-17.3,2.3-26,3.1C7.2,173.7,0,177.7,0,184.2c0,18.6,0,33,0,51.5c0,5.5,7.2,10.5,13.5,11.1
	c8.8,0.8,17.6,2.1,26.4,3.3c1.1,0.2,2.7,1.4,3,2.5c3.6,12.8,8.6,25,15.3,36.5c1.1,1.9,0.6,3-0.6,4.4c-5.8,7.4-11.6,14.8-17.3,22.2
	c-4.9,6.4-4.6,11.8,1.1,17.5c11,11,22,22.1,33,33c5.7,5.6,11.2,6,17.5,1.1c7.5-5.7,14.9-11.5,22.2-17.3c1.7-1.3,2.9-1.4,4.7-0.4
	c11.3,6.5,23.2,11.5,35.9,14.8c2,0.5,2.8,1.5,3,3.6c0.9,8.7,2.4,17.3,3.1,26c0.6,6.3,4.9,13.5,11.1,13.5c18.6,0,33,0,51.5,0
	c5.6,0,9.8-6.4,10.6-12.9c0.1-0.7,0.1-1.5,0.1-2.2c0-1.5,0-3,0-4.4c11.1,10.3,24.7,16.6,40.8,18.8c5.8,0.9,11.5,1.2,16.5,0.6
	c4.2-0.5,7.8-1.5,11.6-2.6c32.7-9.1,54.6-38.5,54.1-72.6c0-1,0-2,0-3.5c1.7-0.4,3.4-0.7,5.1-1.1c29.9-6.5,52.7-31.4,56.9-61.9
	c0.4-2.2,0.5-9,0.3-13.9C419.5,248.3,418.7,242.5,418,239.5z M210.8,384.5c-9.1,0-18.1,0-27.5,0c-1.2-9.7-2.4-19.4-3.8-29.1
	c-0.9-6.5-3.8-9.5-10.2-10.9c-16.5-3.6-31.9-10-46.1-19.1c-6-3.9-10.2-3.5-15.9,0.9c-7.4,5.7-14.8,11.5-21.9,17
	c-6.9-6.9-13.7-13.7-20.9-20.8c4.9-6.3,10.2-13.1,15.6-20c6.4-8.3,6.6-11.1,1-20.1C72.7,269,67,254.5,63.5,239
	c-1.6-7.2-4.4-9.8-11.7-10.8c-9.4-1.3-18.8-2.4-28.4-3.6c0-9.7,0-19.2,0-29.2c8.3-1.1,16.7-2.2,25.1-3.2c10.9-1.2,13.3-3.2,15.7-14
	c3.4-14.8,9.3-28.6,17.4-41.4c5.1-8,4.9-11.2-1-18.8c-5.4-7-10.9-14-16.1-20.8c7-7,13.8-13.7,20.8-20.7c7.1,5.5,14.5,11.2,21.9,17
	c6.1,4.7,10,5,16.6,0.8c14-9,29.2-15.2,45.4-18.8c6.9-1.5,9.6-4.4,10.6-11.4c1.3-9.4,2.4-18.9,3.7-28.6c9.2,0,18.2,0,27.6,0
	c0,23.4,0,46.7,0,70.3c-35.4-3.4-65.5,7.4-89.7,33.2c-19.8,21.1-28.8,46.4-27.9,75.4c1.8,57.4,54.4,107,117.5,99.7
	C210.8,337.5,210.8,360.9,210.8,384.5z M210.9,290.3c-26.4,5.4-60.1-5.4-80.2-34.2c-19.2-27.5-19.2-64.6,0-92.1
	c20.2-28.9,54-39.5,80.2-34.2C210.9,183.1,210.9,236.6,210.9,290.3z M381.5,220.1c14.9,14.4,19.4,36,11.5,55.1
	c-7.8,19-26.2,31.4-47,31c-8.3-0.2-13,4.5-13.7,9.6c-0.3,2.2,0.1,4.6,0.5,6.8c4.2,20.5-1.6,37.7-17.7,50.7
	c-16,12.8-34.2,14.9-52.6,6.1c-16.5-7.9-25.9-21-28.2-38.2v-13.4v-29.2c7.8,0,15.3-0.1,22.8,0.1c1.1,0,2.4,1.8,3,3.1
	c6.4,13.1,20,21,34.3,19.8c14.4-1.2,26.6-11.2,30.6-25.1c4.9-17.2-4.1-35.5-20.7-41.9c-16.9-6.6-35.9,0.8-43.8,17.2
	c-1.4,2.9-3,3.8-6,3.7c-6.7-0.2-13.4-0.1-20.2-0.1v-53.9c0.9-0.1,1.8-0.2,2.8-0.2c16.5,0,33,0,49.5-0.1c2.4,0,3.5,0.8,4.5,3
	c7.6,16.2,25.5,24,42.3,18.6c16.3-5.3,26.4-22,23.4-38.8c-3.1-17.6-18.2-29.9-36-28.9c-13.7,0.8-23.7,7.8-29.8,20.2
	c-0.8,1.6-1.3,3-3.7,3c-17.3-0.1-34.5-0.1-51.8-0.1c-0.4,0-0.8-0.1-1.2-0.1v-53.9c7.8,0,15.6-0.1,23.3,0.1c0.9,0,1.9,1.7,2.4,2.9
	c9.5,20,34.3,26.4,52,13.5c11.7-8.5,16.9-23.1,13.2-36.9c-3.8-14.2-15.9-24.4-30.4-25.8c-14.1-1.4-28,6.3-34.2,19.2
	c-1.4,3-2.9,4.1-6.3,3.9c-6.3-0.3-12.7-0.1-20.1-0.1V92.3v-10c0.3-2.9,0.7-5.8,1.2-8.6c5-26.8,32.9-43.5,59.3-37.3
	c27.4,6.4,44.2,33,38.1,60.2c-2.5,11,2.1,16.7,13.5,16.7c20.6,0,39.1,12.5,46.7,31.5c7.6,19,3.1,40.4-11.7,54.8
	C373.8,207,373.8,212.7,381.5,220.1z M280.1,286.9c0.1-6.3,5.4-11.5,11.6-11.4c6.3,0,11.5,5.3,11.5,11.6c0,6.2-5.2,11.5-11.5,11.6
	C285.4,298.8,280,293.3,280.1,286.9z M311,209.8c0-6.3,5.2-11.5,11.5-11.6c6.4-0.1,11.8,5.3,11.7,11.7c-0.1,6.2-5.4,11.5-11.6,11.4
	C316.3,221.4,311,216.1,311,209.8z M280.1,132.2c0.2-6.2,5.6-11.4,11.8-11.2c6.3,0.1,11.4,5.5,11.3,11.7
	c-0.1,6.2-5.4,11.5-11.6,11.4C285.2,144.1,279.9,138.6,280.1,132.2z"/>
</svg>
