<?xml version="1.0" encoding="utf-8"?>
<!-- Generator: Adobe Illustrator 27.8.1, SVG Export Plug-In . SVG Version: 6.00 Build 0)  -->
<svg version="1.1" id="Layer_1" xmlns="http://www.w3.org/2000/svg" xmlns:xlink="http://www.w3.org/1999/xlink" x="0px" y="0px"
	 viewBox="0 0 420 420" style="enable-background:new 0 0 420 420;" xml:space="preserve">
<style type="text/css">
	.st0{fill:#5BABFF;}
	.st1{fill:#FFD9B3;}
</style>
<path class="st0" d="M279.2,404.7c-46.2,0-91.9,0-138.1,0c-0.1-1.5-0.2-3-0.2-4.5c0-49,0-98,0-147c0-10.8,5.3-16.1,16.1-16.2
	c35.3,0,70.6,0,106,0c10.9,0,16.2,5.3,16.2,16c0,49.1,0,98.3,0,147.4C279.2,401.8,279.2,403,279.2,404.7z"/>
<path class="st1" d="M251.2,185.3c0,22.7-18.7,41.2-41.4,41.1c-22.5-0.1-40.9-18.7-40.9-41.2c0-22.7,18.7-41.2,41.4-41.1
	C232.8,144.2,251.2,162.7,251.2,185.3z"/>
<path d="M0.6,353.7c2.4-5.3,6.8-7.9,12.2-9.8c21.5-7.7,42.9-15.8,64.4-23.6c4.3-1.6,7.4-4.2,9.7-8.2c13.4-22.9,27.1-45.6,40.3-68.7
	c7.4-13,17.9-20.5,33.5-21.6c-11.7-17-15.2-35.3-9.2-54.9c4.1-13.6,12.4-24.5,24.1-32.5c23.4-16,54.4-13.7,75.6,5.3
	c18.8,16.8,29.8,50.1,8.5,81.9c2.8,0.5,5.6,0.8,8.3,1.5c10.2,2.7,18,8.7,23.4,17.9c13.7,23.4,27.6,46.6,41.2,70.1
	c2.8,4.8,6.3,7.8,11.5,9.6c21.4,7.7,42.6,15.7,64,23.4c5.1,1.8,9,4.7,11.4,9.6c1,2.1,0.5,4.9,0,6.5c-5.5,9.3-9.8,10.7-20.2,6.9
	c-21.7-8-43.4-15.8-65-24.1c-5.1-2-10.2-4.8-14.2-8.5c-3.9-3.5-6.8-8.4-9.6-13c-4.7-7.5-9.1-15.3-13.6-23c-0.3,0.1-0.5,0.1-0.8,0.2
	c0,1.4,0,2.8,0,4.3c0,33.5-0.2,67,0.1,100.5c0.1,7.6-2.1,13.2-9.1,16.5c-51.3,0-102.5,0-153.8,0c-7-3.3-9.2-8.8-9.1-16.5
	c0.3-33.5,0.1-67,0.1-100.5c0-1.4,0-2.8,0-5.5c-1.4,2.2-2.1,3.2-2.8,4.4c-4.6,7.7-9.2,15.4-13.7,23.2c-5,8.6-12,14.5-21.4,17.9
	c-22,8-43.9,16.1-65.8,24.2c-10.1,3.7-14.4,2.2-19.9-7C-0.1,358.4-0.3,356.1,0.6,353.7z M271.4,395.3c0-1.5,0-2.6,0-3.7
	c0-43.6,0-87.2,0-130.8c0-9.5-4.8-14.2-14.4-14.2c-31.3,0-62.7,0-94,0c-9.5,0-14.3,4.7-14.3,14.3c0,43.5,0,86.9,0,130.4
	c0,1.3,0.1,2.6,0.2,4C189.8,395.3,230.3,395.3,271.4,395.3z M246.8,185.3c0-20.2-16.4-36.7-36.6-36.8c-20.4-0.1-37,16.4-37,36.8
	c0,20.2,16.4,36.7,36.6,36.8C230.1,222.1,246.8,205.6,246.8,185.3z"/>
<path d="M327.5,0.2c7.5,0.5,12,2.4,17.2,4.2c30.1,10.3,50.2,39.5,49.3,71.3c-0.8,28.7-28.2,51.6-55.9,46.5
	c-15.6-2.8-27.4-15.5-29.7-31.8c-2.1-14.6,6.2-30.1,19.7-37c7.1-3.6,14.3-1.7,17.7,4.6c3.3,6.1,0.9,13-5.9,16.9
	c-6.1,3.5-8.5,9.2-6.4,15.1c2.1,5.9,7.5,9,14.3,8.2c10.5-1.3,19.3-8.8,21.1-19.4c2.4-14.2-2.3-26.7-11.6-37.3
	c-18.7-21.3-50.4-22.5-70.7-3.1c-20.2,19.3-20.4,51.4,0.2,70.7c8.1,7.6,5.7,19.3-3.2,22.1c-4.6,1.4-8.7,0.5-12.2-2.6
	c-18.1-16.9-26.9-37.7-24-62.3c4.1-35.3,28.3-59.7,63.5-65.4C311.3,0.8,321.5-0.4,327.5,0.2z"/>
<path d="M129.7,4.9c24.6,13.4,25.4,48.5,1.6,63.2c-5.2,3.2-7.4,7.2-7.1,13.1c0.1,1.8,0.1,3.5,0,5.3c-0.4,6.4-5.3,11.4-11.5,11.8
	c-6,0.4-12-3.7-12.7-9.8c-1.5-12.4,0-24.3,9.1-33.9c2.5-2.6,5.6-4.7,8.7-6.7c5.4-3.6,7.7-9,5.7-14.7c-1.9-5.5-7.5-9-13.1-8.3
	c-6,0.8-10.2,5.5-10.7,12.1c-0.6,7.6-6,12.8-13,12.4c-7-0.4-11.8-6.1-11.5-13.7C75.6,19.1,87.4,5,103.9,1.1c1-0.2,4.5-0.9,7.8-0.9
	C116.7,0.2,125.7,2.1,129.7,4.9z"/>
<path d="M124.1,135.1c0,6.6-5.5,12.2-12.2,12.3c-6.8,0.1-12.5-5.7-12.4-12.5c0.1-6.6,5.7-12.1,12.4-12
	C118.6,122.9,124.1,128.5,124.1,135.1z"/>
</svg>
