<?xml version="1.0" encoding="utf-8"?>
<!-- Generator: Adobe Illustrator 27.8.1, SVG Export Plug-In . SVG Version: 6.00 Build 0)  -->
<svg version="1.1" id="Layer_1" xmlns="http://www.w3.org/2000/svg" xmlns:xlink="http://www.w3.org/1999/xlink" x="0px" y="0px"
	 viewBox="0 0 420 420" style="enable-background:new 0 0 420 420;" xml:space="preserve">
<style type="text/css">
	.st0{fill:#FFD243;}
	.st1{fill:#FCB90F;}
	.st2{fill:#FF3B0B;}
</style>
<g>
	<circle class="st0" cx="210" cy="210" r="205"/>
</g>
<g>
	<path d="M210,0C94,0,0,94,0,210s94,210,210,210s210-94,210-210S326,0,210,0z M210,408c-109.4,0-198-88.6-198-198S100.6,12,210,12
		s198,88.6,198,198S319.4,408,210,408z"/>
</g>
<path class="st1" d="M12,210c0,109.4,88.6,198,198,198c38.3,0,74-10.9,104.2-29.6c-23.6,9.4-49.3,14.7-76.2,14.7
	c-113.2,0-205-91.8-205-205c0-44.4,14.1-85.5,38.1-119.1C34.6,104.8,12,154.8,12,210z"/>
<g>
	<path d="M206.1,174.5c0,27.1-22.1,49.1-49.2,49.1c-27.2,0-49.2-22-49.2-49.1v-18.1c0-6.5,5.2-11.9,11.7-11.9s11.9,5.3,11.9,11.9
		v18.1c0,14,11.5,25.5,25.6,25.5c14,0,25.5-11.5,25.5-25.5c0,0,0-17.7,0-17.8c0-6.5,5.3-11.9,11.9-11.9c6.5,0,11.9,5.3,11.9,11.9
		C206.1,156.9,206.1,174.5,206.1,174.5z"/>
</g>
<g>
	<path d="M383.9,174.5c0,27.1-22.1,49.1-49.2,49.1c-27.2,0-49.2-22-49.2-49.1v-18.1c0-6.5,5.2-11.9,11.7-11.9s11.9,5.3,11.9,11.9
		v18.1c0,14,11.5,25.5,25.6,25.5c14,0,25.5-11.5,25.5-25.5c0,0,0-17.7,0-17.8c0-6.5,5.3-11.9,11.9-11.9c6.5,0,11.9,5.3,11.9,11.9
		C383.9,156.9,383.9,174.5,383.9,174.5z"/>
</g>
<g>
	<path class="st2" d="M118.8,249.2h-30c-4.9,0-8.9,4.6-8.9,10.2c0,5.6,4,10.2,8.9,10.2h30c4.9,0,8.9-4.6,8.9-10.2
		C127.7,253.7,123.7,249.2,118.8,249.2z"/>
</g>
<path d="M288.9,273.5c-0.6-2.8-2.5-4.3-5.3-4.4c-4.6-0.2-8.2,1.9-11.1,5.3c-1.8,2.1-3.3,4.4-5,6.5c-1.7,2.1-3.6,2.2-5.3,0
	c-1.3-1.6-2.6-3.4-3.8-5.1c-3.7-4.9-8.6-6.8-13-6.8s-8.4,2.7-11.6,6.9c-1.3,1.7-2.5,3.4-3.8,5.1c-1.7,2.1-3.6,2-5.3,0
	c-1.7-2.1-3.3-4.4-5-6.5c-2.9-3.4-6.5-5.5-11.1-5.3c-2.8,0.1-4.7,1.6-5.3,4.4c-0.6,2.7,0.3,5.5,3,6.1c4.4,0.8,6.3,4,8.6,7.1
	c7.2,9.6,17.9,9.8,24.9,0c3.2-4.4,4.9-6.4,6.5-6.2c1.5,0.2,3.2,2.2,6.1,6.2c7,9.8,17.7,9.6,24.9,0c2.3-3.1,4.2-6.3,8.6-7.1
	C288.6,279,289.4,276.2,288.9,273.5z"/>
<g>
	<path d="M116.2,240.1H91.4c-10.7,0-19.3,8.6-19.3,19.3v0c0,10.7,8.6,19.3,19.3,19.3h24.8c10.7,0,19.3-8.6,19.3-19.3v0
		C135.5,248.7,126.9,240.1,116.2,240.1z M116.2,266.7H91.4c-4,0-7.3-3.3-7.3-7.3c0-4,3.3-7.3,7.3-7.3h24.8c4,0,7.3,3.3,7.3,7.3
		C123.5,263.4,120.2,266.7,116.2,266.7z"/>
</g>
<g>
	<path class="st2" d="M403.3,249.2h-30c-4.9,0-8.9,4.6-8.9,10.2c0,5.6,4,10.2,8.9,10.2h30c4.9,0,8.9-4.6,8.9-10.2
		C412.2,253.7,408.2,249.2,403.3,249.2z"/>
</g>
<g>
	<path d="M400.7,240.1h-24.8c-10.7,0-19.3,8.6-19.3,19.3v0c0,10.7,8.6,19.3,19.3,19.3h24.8c10.7,0,19.3-8.6,19.3-19.3v0
		C420,248.7,411.4,240.1,400.7,240.1z M400.7,266.7h-24.8c-4,0-7.3-3.3-7.3-7.3c0-4,3.3-7.3,7.3-7.3h24.8c4,0,7.3,3.3,7.3,7.3
		C408,263.4,404.7,266.7,400.7,266.7z"/>
</g>
</svg>
