<svg xmlns="http://www.w3.org/2000/svg" viewBox="0 0 275 40" class="lg:block hidden w-44 lg:w-48 auto cursor-pointer" style="max-width:275px;" data-v-817a8e29=""><path d="M156.962 0c1.117 0 2.06.387 2.853 1.187.795.773 1.185 1.693 1.185 2.76 0 1.093-.39 2.04-1.185 2.813-.794.787-1.736 1.173-2.853 1.173h-18.268c-1.319 0-2.436.454-3.352 1.347-.915.907-1.373 2-1.373 3.307v4.52h16.33c1.116 0 2.059.4 2.853 1.173s1.185 1.693 1.185 2.76c0 1.093-.404 2.04-1.185 2.813a3.912 3.912 0 0 1-2.854 1.174H133.97v11.04c0 1.093-.39 2.026-1.157 2.786A3.914 3.914 0 0 1 129.986 40c-1.118 0-2.06-.387-2.827-1.147-.768-.76-1.158-1.693-1.158-2.786V12.533c0-3.466 1.238-6.426 3.702-8.866C132.179 1.227 135.167 0 138.68 0zm38.067 0c1.117 0 2.046.387 2.813 1.147.768.76 1.158 1.693 1.158 2.786v23.534c0 3.466-1.238 6.426-3.702 8.866-2.463 2.44-5.452 3.667-8.952 3.667h-9.692c-3.5 0-6.489-1.227-8.952-3.667-2.464-2.44-3.702-5.4-3.702-8.866V3.933c0-1.093.39-2.026 1.158-2.786.767-.76 1.71-1.147 2.813-1.147 1.077 0 2.006.387 2.787 1.147.794.76 1.184 1.693 1.184 2.786v23.534c0 1.306.431 2.413 1.346 3.32.916.906 2.033 1.36 3.352 1.36h9.693c1.319 0 2.436-.48 3.352-1.414.915-.933 1.373-2.026 1.373-3.266V3.933c0-1.093.39-2.026 1.157-2.786.768-.76 1.71-1.147 2.814-1.147zm37.933 0c1.117 0 2.06.387 2.853 1.187.795.773 1.185 1.693 1.185 2.76 0 1.093-.39 2.04-1.185 2.813-.794.787-1.736 1.173-2.853 1.173h-18.268c-1.319 0-2.436.454-3.352 1.347-.915.907-1.373 2-1.373 3.307v4.52h16.33c1.116 0 2.059.4 2.853 1.173s1.185 1.693 1.185 2.76c0 1.093-.404 2.04-1.185 2.813a3.912 3.912 0 0 1-2.854 1.174H209.97v11.04c0 1.093-.39 2.026-1.157 2.786A3.914 3.914 0 0 1 205.986 40c-1.118 0-2.06-.387-2.827-1.147-.768-.76-1.158-1.693-1.158-2.786V12.533c0-3.466 1.238-6.426 3.702-8.866C208.179 1.227 211.167 0 214.68 0zM117.029 0c1.117 0 2.046.387 2.813 1.147.768.76 1.158 1.693 1.158 2.786v23.534c0 3.466-1.238 6.426-3.702 8.866-2.463 2.44-5.452 3.667-8.952 3.667h-9.692c-3.5 0-6.489-1.227-8.952-3.667-2.464-2.44-3.702-5.4-3.702-8.866V3.933c0-1.093.39-2.026 1.158-2.786C87.925.387 88.868 0 89.97 0c1.064 0 1.992.387 2.787 1.147.794.76 1.184 1.693 1.184 2.786v23.534c0 1.306.431 2.413 1.346 3.32.916.906 2.033 1.36 3.352 1.36h9.693c1.319 0 2.436-.48 3.352-1.414.915-.933 1.373-2.026 1.373-3.266V3.933c0-1.093.39-2.026 1.157-2.786.768-.76 1.71-1.147 2.814-1.147zm-86 0c1.117 0 2.046.387 2.813 1.147C34.61 1.907 35 2.84 35 3.933v23.534c0 3.466-1.238 6.426-3.702 8.866C28.835 38.773 25.846 40 22.346 40h-9.692c-3.5 0-6.489-1.227-8.952-3.667C1.238 33.893 0 30.933 0 27.467V3.933C0 2.84.377 1.907 1.158 1.147 1.925.387 2.854 0 3.97 0c1.064 0 1.992.387 2.787 1.147.794.76 1.184 1.693 1.184 2.786v23.534c0 1.306.445 2.413 1.36 3.32.915.906 2.033 1.36 3.352 1.36h9.679c1.319 0 2.436-.48 3.352-1.414.915-.933 1.373-2.026 1.373-3.266V3.933c0-1.093.39-2.026 1.157-2.786C28.983.387 29.925 0 31.03 0zm240 0c1.104 0 2.046.387 2.813 1.147.768.76 1.158 1.693 1.158 2.786v23.534c0 3.466-1.238 6.426-3.702 8.866-2.463 2.44-5.452 3.667-8.952 3.667h-9.692c-3.5 0-6.489-1.227-8.952-3.667-2.464-2.44-3.702-5.4-3.702-8.866V3.933c0-1.093.39-2.026 1.158-2.786.767-.76 1.71-1.147 2.813-1.147 1.077 0 2.006.387 2.787 1.147.794.76 1.184 1.693 1.184 2.786v23.534c0 1.306.431 2.413 1.346 3.32.916.906 2.033 1.36 3.352 1.36h9.693c1.319 0 2.436-.48 3.352-1.414.915-.933 1.373-2.026 1.373-3.266V3.933c0-1.093.39-2.026 1.157-2.786.768-.76 1.71-1.147 2.814-1.147zM80.954 13c1.139 0 2.085.392 2.867 1.161A3.825 3.825 0 0 1 85 16.983V27.31c0 3.51-1.262 6.507-3.771 8.978-2.51 2.47-5.555 3.712-9.12 3.712h-2.263c-3.443 0-6.391-1.161-8.846-3.456C58.545 38.853 55.597 40 52.154 40h-2.263c-3.565 0-6.61-1.242-9.12-3.712C38.261 33.817 37 30.82 37 27.31V16.983c0-1.107.398-2.053 1.18-2.822.781-.77 1.741-1.161 2.866-1.161 1.097 0 2.043.392 2.839 1.161.809.77 1.206 1.715 1.206 2.822V27.31c0 1.323.453 2.444 1.386 3.362.932.918 2.07 1.376 3.414 1.376h2.236c1.344 0 2.482-.486 3.415-1.43.932-.945 1.399-2.052 1.399-3.308V16.983c0-.136 0-.27.013-.405a3.776 3.776 0 0 1 1.152-2.417c.782-.77 1.742-1.161 2.867-1.161 1.124 0 2.084.392 2.866 1.161a3.822 3.822 0 0 1 1.18 2.822V27.31l.008.262c.067 1.21.52 2.243 1.39 3.1.933.918 2.071 1.376 3.415 1.376h2.263c1.344 0 2.482-.486 3.415-1.43.932-.945 1.399-2.052 1.399-3.308V16.983c0-1.107.397-2.053 1.179-2.822.782-.77 1.742-1.161 2.866-1.161z" fill="#e73929" fill-rule="nonzero"></path></svg>